<?xml version="1.0" encoding="UTF-8"?>
<!DOCTYPE svg PUBLIC "-//W3C//DTD SVG 1.1//EN" "http://www.w3.org/Graphics/SVG/1.1/DTD/svg11.dtd">
<!-- Creator: CorelDRAW 2021 (64-Bit) -->
<svg xmlns="http://www.w3.org/2000/svg" xml:space="preserve" width="500px" height="500px" version="1.1" style="shape-rendering:geometricPrecision; text-rendering:geometricPrecision; image-rendering:optimizeQuality; fill-rule:evenodd; clip-rule:evenodd"
viewBox="0 0 500 500"
 xmlns:xlink="http://www.w3.org/1999/xlink"
 xmlns:xodm="http://www.corel.com/coreldraw/odm/2003">
 <defs>
  <style type="text/css">
   <![CDATA[
    .fil0 {fill:#ADADAD}
   ]]>
  </style>
 </defs>
 <g id="Capa_x0020_1">
  <metadata id="CorelCorpID_0Corel-Layer"/>
  <g id="_2604342607824">
   <path class="fil0" d="M402.505 259.593c0,-1.475 0.952,-4.546 1.647,-5.886 1.325,-2.558 3.104,-5.066 5.427,-6.809 0.977,-0.732 2.012,-1.422 3.066,-2.017l17.939 -6.726c0.695,-0.227 1.121,-0.414 1.775,-0.672l5.518 -1.826c2.902,-0.96 9.619,-2.982 11.628,-5.505 0.891,-1.119 0.354,-0.948 1.004,-1.43l0.019 12.974c0.464,5.841 0.176,16.964 0.176,23.357l-0.836 4.435c-0.466,1.457 -0.837,2.489 -1.483,3.788 -0.346,0.697 -0.509,1.069 -0.96,1.677l-1.67 2.285c-1.014,1.147 -2.356,2.024 -3.682,2.718l-2.81 1.145c-0.583,0.241 -0.19,0.157 -0.966,0.349 -3.103,0.766 -5.674,1.306 -8.874,1.302 -1.073,-0.001 -1.314,0.184 -2.253,0.184l-6.173 -0.26c-0.003,0 -0.374,-0.024 -0.375,-0.024 -0.023,-0.001 -0.366,-0.015 -0.38,-0.016l-6.376 -1.266c-0.316,-0.088 -0.452,-0.185 -0.926,-0.395 -3.116,-1.375 -2.012,-0.572 -5.191,-3.09 -0.656,-0.52 -1.657,-1.95 -2.15,-2.748 -3.103,-5.025 -3.094,-9.725 -3.094,-15.544zm15.627 -107.51c-3.326,0.012 -12.186,1.324 -15.595,2.294l-4.431 1.594 -6.445 3.344c-2.306,1.377 -4.492,3.215 -6.34,5.147 -1.999,2.088 -2.502,3.324 -3.851,5.186l-2.204 4.762c-1.941,4.972 -2.011,9.527 -1.986,16.273 0.062,1.481 0.946,2.261 2.443,2.261 2.388,0 20.347,0.271 21.346,-0.121 1.407,-0.552 1.488,-4.414 1.811,-5.72 0.355,-1.434 0.807,-2.481 1.343,-3.74 0.334,-0.786 1.369,-2.544 1.855,-3.229 0.369,-0.519 0.735,-0.803 1.13,-1.316 1.157,-1.504 3.12,-2.649 4.851,-3.347 3.957,-1.596 8.111,-2.296 12.474,-2.293 5.04,0.002 5.939,-0.054 10.842,0.826 0.313,0.056 0.8,0.123 1.102,0.217l4.032 1.449c1.562,0.753 3.229,1.644 4.495,2.827l1.157 1.103c2.011,2.179 2.991,4.315 3.794,7.137 0.745,2.617 0.364,6.285 0.377,9.22 0.002,0.51 0.004,0.961 -0.044,1.466 -0.251,2.645 -2.283,6.776 -4.312,8.489 -6.876,5.805 -11.446,5.649 -19.991,9.003l-18.21 6.455c-0.353,0.131 -0.808,0.252 -1.151,0.357 -5.854,1.789 -11.166,3.602 -16.095,7.251 -2.548,1.885 -5.434,5.071 -6.91,7.775 -0.185,0.339 -0.264,0.551 -0.456,0.861 -2.202,3.558 -3.75,7.569 -4.436,11.758 -0.117,0.718 -0.245,1.53 -0.382,2.441 -0.672,4.481 -0.316,12.51 -0.316,17.194 0,2.951 0.443,5.686 0.923,8.113 0.478,2.417 1.282,4.687 2.248,6.977 0.849,2.008 2.083,3.904 3.476,5.562l1.608 1.779c0.17,0.159 0.096,0.089 0.302,0.264l0.309 0.256c1.266,1.067 2.414,2.219 3.823,3.145 0.557,0.365 0.801,0.557 1.32,0.939 0.528,0.388 0.873,0.533 1.394,0.866 2.179,1.39 5.36,3.059 7.806,3.678l3.451 1.07c3.454,0.871 7.913,2.143 11.56,2.183 0.598,0.014 2.18,0.192 2.904,0.296l6.134 0.268c0.585,-0.048 0.655,-0.199 1.288,-0.16 1.32,0.082 3.255,0.256 4.629,0.054 1.027,-0.151 2.055,0.011 3.068,-0.13 2.439,-0.342 4.87,-0.328 7.36,-0.928 1.09,-0.264 2.404,-0.49 3.598,-0.733 1.171,-0.238 2.337,-0.59 3.424,-0.906 4.206,-1.223 8.325,-2.916 11.996,-5.327l5.008 -3.84c1.618,-1.257 3.93,-3.944 4.879,-5.854 0.323,-0.652 0.492,-0.846 0.817,-1.441 0.256,-0.467 0.488,-0.904 0.677,-1.395 0.119,-0.307 0.185,-0.556 0.3,-0.83 1.345,-3.197 2.656,-8.174 2.661,-11.647l0.001 -87.361c0,-1.979 -0.971,-6.314 -1.557,-7.857l-0.947 -2.444c-0.201,-0.421 -1.816,-3.723 -2.954,-5.33 -1.361,-1.923 -2.795,-3.85 -4.59,-5.389 -5.596,-4.799 -9.744,-6.745 -16.983,-8.811 -4.943,-1.412 -10.298,-1.924 -15.523,-2.175 -0.699,-0.033 -0.769,-0.19 -1.127,-0.19 -4.327,0 -8.975,0.046 -13.18,0.374z"/>
   <path class="fil0" d="M97.865 228.531c0.079,8.584 0.007,17.202 0.007,25.79 0,6.434 0.811,11.545 -1.56,17.457 -0.219,0.547 -0.304,0.703 -0.536,1.16 -0.688,1.351 -2.14,3.986 -3.255,4.84 -1.71,1.312 -1.65,1.457 -3.927,2.476 -1.688,0.755 -3.014,1.205 -4.828,1.573 -0.825,0.167 -1.897,0.378 -2.707,0.493 -6.038,0.858 -15.084,0.746 -20.585,-1.335 -0.228,-0.086 -0.312,-0.102 -0.565,-0.188 -1.47,-0.492 -1.89,-0.804 -3.124,-1.584 -0.63,-0.398 -1.288,-0.895 -1.801,-1.399 -1.991,-1.953 -3.71,-5.292 -4.449,-8.542 -1.437,-6.314 -1.406,-12.938 2.522,-18.343 0.428,-0.589 0.936,-1.135 1.427,-1.773 1.282,-1.669 3.505,-3.238 5.353,-4.248 0.68,-0.372 1.415,-0.754 2.079,-1.122 1.558,-0.864 17.268,-6.014 21.239,-7.569 0.416,-0.162 0.88,-0.232 1.327,-0.368 0.352,-0.107 0.716,-0.244 1.126,-0.379 2.989,-0.986 6.568,-2.266 9.123,-3.68 1.939,-1.073 2.326,-2.307 3.134,-3.259zm-29.555 -76.636c-5.051,-0.004 -14.135,1.175 -18.494,2.594 -4.586,1.493 -8.944,3.507 -12.785,6.42l-3.293 2.733c-2.448,2.403 -4.619,5.377 -5.964,8.533 -2.546,5.974 -2.789,11.285 -2.774,17.764 0.005,1.785 0.62,2.867 2.265,3.005l19.393 0.001c3.404,0 2.203,-2.709 3.819,-7.754 2.246,-7.012 7.696,-10.315 14.549,-11.537 1.035,-0.185 1.766,-0.209 2.852,-0.348l6.08 -0.325c4.351,-0.011 8.599,0.708 12.647,2.23 5.181,1.948 9.22,5.8 10.374,11.468 0.394,1.93 0.595,8.664 0.281,10.738 -0.195,1.281 -0.747,3.103 -1.283,4.177l-0.937 1.697c-0.356,0.6 -0.735,1.053 -1.175,1.649 -2.303,3.118 -6.554,5.076 -10.236,6.335 -1.46,0.5 -2.517,0.878 -4.092,1.369l-4.095 1.363c-4.132,1.366 -8.007,3.084 -12.145,4.424 -4.136,1.339 -8.062,2.946 -12.227,4.152l-5.058 1.721c-0.687,0.214 -0.407,0.112 -0.958,0.36 -4.264,1.925 -8.392,4.325 -11.362,8.03 -3.289,4.103 -2.984,3.978 -5.339,8.405 -0.364,0.686 -0.547,1.214 -0.827,1.997 -1.63,4.554 -2.52,9.071 -2.52,14.049l0 12.615c0,2.842 0.88,6.723 1.653,9.454 0.49,1.732 1.012,3.415 1.767,5.011 0.257,0.542 0.458,1.058 0.714,1.546 1.212,2.315 3.037,4.58 4.948,6.349 0.465,0.431 0.739,0.567 1.229,1.029l2.528 1.992c0.925,0.631 1.706,1.19 2.684,1.835 1.39,0.917 2.933,1.746 4.477,2.303 0.7,0.252 0.232,0.057 0.79,0.337 0.415,0.209 0.291,0.16 0.774,0.355 4.649,1.879 9.432,2.868 14.479,3.597 2.079,0.3 4.258,0.626 6.312,0.654l4.903 0.183c0.719,-0.045 0.651,-0.133 1.16,-0.166 0.993,-0.065 0.47,0.166 1.099,0.166l10.321 -0.601c0.974,-0.119 2.248,-0.224 3.344,-0.422 3.089,-0.556 6.996,-1.307 9.774,-2.463 0.612,-0.255 0.002,-0.055 0.682,-0.259l3.123 -1.209c0.04,-0.018 0.088,-0.042 0.129,-0.06l4.931 -2.6c2.805,-2.001 5.564,-3.574 7.946,-6.362 3.09,-3.618 4.461,-6.74 5.876,-11.069 2.127,-6.506 1.504,-13.96 1.504,-21.085l0 -67.969c0,-4.764 -0.078,-9.226 -1.417,-13.641 -1.053,-3.47 -2.917,-7.267 -5.231,-10.018 -2.908,-3.459 -6.223,-6.487 -10.233,-8.598 -1.329,-0.699 -2.396,-1.312 -3.825,-1.824l-4.828 -1.759c-1.692,-0.591 -3.563,-0.926 -5.321,-1.269 -3.154,-0.617 -6.605,-1.116 -9.997,-1.305l-11.297 -0.185c-0.944,0 -0.841,0.17 -1.694,0.188z"/>
   <path class="fil0" d="M186.36 153.968l0 115.415 0.727 6.428c0.506,2.986 1.23,6.174 2.609,8.876l2.011 3.261c1.59,2.31 4.026,4.714 6.164,6.451l3.59 2.622c0.492,0.334 0.769,0.516 1.28,0.793 6.387,3.465 8.498,3.798 15.434,5.465 2.906,0.698 7.381,0.983 10.364,1.122 0.694,0.033 0.775,0.187 1.126,0.187 6.351,0.003 12.222,0.205 18.535,-0.666 3.956,-0.545 8.867,-1.327 12.506,-2.744 0.3,-0.117 0.499,-0.232 0.782,-0.349 1.063,-0.439 1.505,-0.4 2.955,-1.186 0.037,-0.02 0.083,-0.049 0.119,-0.069 0.037,-0.02 0.083,-0.049 0.12,-0.069 5.672,-3.072 6.606,-3.41 11.489,-8.09 1.521,-1.458 3.397,-3.729 4.456,-5.713 0.608,-1.139 1.145,-2.215 1.626,-3.457 1.309,-3.38 2.202,-9.361 2.202,-13.05l0 -47.823c0,-0.343 -0.186,-0.549 -0.189,-1.318l0 -61.567c0,-1.434 0.037,-2.912 0.009,-4.339 -0.015,-0.815 -0.106,-1.262 -0.493,-1.767 -0.31,-0.404 -0.824,-0.858 -1.399,-0.858l-20.899 0.001c-1.407,0 -2.016,1.366 -2.074,2.629 -0.153,3.37 0.003,10.835 0.003,14.501l0 86.797c0,5.764 0.58,12.678 -2.176,17.967 -2.216,4.251 -6.437,6.224 -10.618,7.647l-1.93 0.518c-4.91,1.098 -8.637,1.442 -13.688,0.962 -3.487,-0.331 -7.84,-1.2 -10.909,-2.668 -9.455,-4.518 -8.882,-14.08 -8.882,-22.92l0 -99.411c0,-6.55 -0.342,-6.022 -5.08,-6.022l-16.571 -0.003c-1.439,-0.012 -3.199,0.13 -3.199,2.447z"/>
   <path class="fil0" d="M165.085 96.731l-21.273 0c-1.682,1.162 -1.696,0.092 -1.696,5.084 0,25.215 -0.175,200.08 0.017,201.253 0.382,2.323 3.246,1.713 5.254,1.713l17.147 0.013c1.163,-0.027 1.82,-0.525 2.126,-1.452 0.373,-1.135 0.119,-93.668 0.119,-97.221l-0.011 -107.495c-0.074,-0.525 -0.325,-0.917 -0.65,-1.23l-0.672 -0.46c-0.034,-0.021 -0.089,-0.051 -0.12,-0.068 -0.031,-0.018 -0.096,-0.054 -0.121,-0.068 -0.025,-0.014 -0.082,-0.042 -0.12,-0.069z"/>
   <path class="fil0" d="M304.788 184.469l0 118.24c0,2.234 2.145,2.075 3.388,2.069l19.587 0.005c2.59,-0.274 1.879,-4.218 1.879,-6.593l-0.001 -106.378c-0.002,-1.133 0.059,-1.803 0.157,-2.672 0.177,-1.58 -0.142,-0.445 0.341,-2.089l1.04 -3.115c0.609,-1.261 2.071,-3.205 3.145,-4.198 0.029,-0.026 0.069,-0.065 0.097,-0.092 0.028,-0.026 0.067,-0.066 0.096,-0.092 2.462,-2.288 5.588,-3.582 8.749,-4.618 2.031,-0.665 4.85,-1.202 6.897,-1.202l12.427 0.001c1.091,0.001 1.786,-0.775 2.103,-1.658 0.321,-0.893 0.472,-1.976 0.758,-3.009l3.931 -15.295c0.009,-1.599 -1.221,-2.059 -2.462,-2.062l-24.536 0.503c-3.472,0.532 -8.777,1.116 -11.894,2.415 -1.344,0.56 -1.778,0.469 -3.522,1.374 -0.543,0.282 -1.814,0.582 -3.31,1.397 -0.579,0.315 -0.999,0.524 -1.614,0.833l-6.045 4.121c-4.402,3.724 -8.23,8.015 -9.669,13.868l-1.246 6.095c-0.044,0.33 -0.296,2.104 -0.296,2.152z"/>
   <path class="fil0" d="M406.08 343.754c-0.019,0.916 -0.385,2.523 -0.535,3.415 -0.207,1.235 -0.369,2.348 -0.61,3.534 -0.858,4.237 -1.664,9.74 -2.35,14.217 -0.38,2.483 -0.849,4.748 -1.179,7.107l-2.263 13.74c-0.539,3.253 -2.286,12.045 -2.286,14.847 0,1.217 1.489,1.694 2.824,1.694l9.979 0c1.073,0 2.015,-0.249 2.491,-0.898 0.644,-0.877 1.373,-7.555 1.617,-9.303l2.672 -18.794c0.021,-0.832 0.309,-1.649 0.374,-2.447l5.518 10.486c1.041,2.113 2.068,4.306 3.297,6.304l5.18 9.882c1.387,2.265 1.782,5.732 5.022,5.73 2.877,-0.001 3.568,-2.84 4.669,-4.951 0.207,-0.399 0.265,-0.604 0.478,-1.028l6.145 -11.743c2.082,-4.204 4.922,-9.842 7.153,-13.744 0.156,-0.273 0.097,-0.181 0.253,-0.501l0.314 -0.623c0.43,1.74 1.49,9.769 1.682,11.5l2.539 17.419c0.163,1.055 0.453,1.653 1.067,2.133 0.936,0.732 8.126,0.39 9.59,0.39 1.018,0 2.422,0.083 3.392,0.004 3.101,-0.252 1.535,-4.529 1.154,-6.809l-9.443 -55.891c-0.891,-5.283 -0.255,-7.19 -4.141,-7.155 -0.666,0.014 -1.175,0.135 -1.588,0.483 -0.764,0.642 -1.175,1.7 -1.611,2.53l-2.982 5.491c-0.034,0.064 -0.181,0.338 -0.198,0.367l-0.14 0.236c-0.021,0.036 -0.049,0.083 -0.069,0.119l-0.136 0.242c-0.02,0.037 -0.044,0.086 -0.065,0.123l-0.91 1.727c-0.238,0.522 -0.443,0.848 -0.738,1.331l-3.668 6.877c-0.317,0.573 -0.524,0.874 -0.825,1.433l-2.766 5.142c-0.084,0.151 -0.104,0.195 -0.196,0.369l-3.66 6.883c-0.235,0.457 -0.479,0.88 -0.745,1.326l-1.539 2.79c-0.514,0.9 -2.206,4.684 -3.015,5.458 -0.216,-0.244 -0.205,-0.249 -0.39,-0.551l-1.119 -2.084c-0.272,-0.507 -0.526,-0.813 -0.783,-1.288l-3.624 -6.919c-1.614,-2.718 -2.877,-5.503 -4.432,-8.185l-5.844 -10.911c-0.268,-0.514 -0.492,-0.8 -0.759,-1.312l-2.22 -4.183c-0.306,-0.501 -0.432,-0.778 -0.721,-1.35l-2.267 -4.132c-1.114,-2.235 -1.734,-2.011 -4.013,-2.011 -2.349,-0.001 -2.453,4.875 -3.012,8.283 -0.162,0.987 -0.491,2.288 -0.568,3.201z"/>
   <path class="fil0" d="M360.142 363.146l2.039 3.798c0.829,1.781 4.853,10.11 5.115,11.265l-13.931 -0.001 6.777 -15.062zm-33.136 36.903c0.001,0.944 0.243,2.259 1.505,2.259l11.862 0.001c2.817,0 3.797,-3.568 4.788,-5.757l1.992 -4.596c0.951,0.46 20.233,0.144 24.67,0.193 0.18,0.002 0.595,0.014 0.752,0 0.487,-0.042 -0.102,0.046 0.332,-0.044 0.406,-0.084 0.187,-0.008 0.413,-0.152l0.723 1.16c0.691,1.492 2.718,6.537 3.606,7.694l0.168 0.208c0.102,0.122 0.111,0.146 0.261,0.303 1.467,1.532 6.211,0.99 9.176,0.99 3.865,0 6.402,0.68 6.402,-2.447 0,-0.716 -1.476,-3.107 -1.813,-4.025l-10.047 -21.583c-0.359,-0.708 -0.607,-1.342 -0.943,-2.071l-14.118 -30.126c-0.686,-1.531 -3.806,-8.934 -4.781,-9.529 -0.13,-0.08 -1.23,-0.446 -1.247,-0.446 -3.191,0.002 -3.333,2.806 -5.458,7.157l-3.252 7.102c-0.019,0.037 -0.047,0.084 -0.066,0.121l-18.079 38.785c-0.028,0.05 -0.111,0.189 -0.139,0.238 -0.062,0.112 -0.214,0.406 -0.257,0.494l-4.562 9.934c-0.346,0.757 -0.622,1.367 -1.009,2.195l-0.583 1.137c-0.404,0.992 -0.298,-0.06 -0.296,0.805z"/>
   <path class="fil0" d="M245.676 378.201c0.048,-0.646 0.532,-1.376 0.8,-2.011l5.975 -13.227 7.148 15.244 -13.923 -0.006zm-26.557 22.413c0.001,1.145 1.244,1.693 2.262,1.694l11.296 0.002c1.049,-0.002 2.272,-0.943 2.748,-1.584l0.287 -0.467c0.756,-1.435 3.474,-7.319 3.555,-8.306l26.548 0c0.074,0.89 2.457,5.947 3.018,6.96 0.178,0.321 0.18,0.278 0.335,0.607 0.486,1.029 1.258,2.606 2.671,2.606 1.66,0 11.896,0.253 12.872,-0.125 1.915,-0.741 0.758,-2.819 0.283,-3.998 -1.147,-2.85 -5.59,-11.904 -7.075,-15.142l-7.547 -16.175c-1.935,-3.956 -3.556,-8.043 -5.566,-11.945 -0.87,-1.689 -1.469,-3.499 -2.367,-5.154l-7.043 -15.186c-0.062,-0.143 -0.155,-0.36 -0.233,-0.519l-0.351 -0.591c-0.403,-0.555 -1.296,-1.212 -1.989,-1.211 -0.864,0.001 -1.758,0.209 -2.345,0.857 -0.528,0.584 -0.733,1.439 -1.101,2.098l-3.545 7.563c-0.101,0.194 -0.197,0.41 -0.301,0.641l-9.156 19.65c-0.197,0.446 -0.322,0.819 -0.499,1.197l-2.569 5.526c-0.401,0.828 -0.686,1.303 -1.032,2.167 -1.21,3.025 -2.764,5.946 -4.12,8.883l-0.615 1.279c-0.014,0.028 -0.042,0.078 -0.058,0.108 -0.199,0.384 -0.144,0.222 -0.317,0.62 -0.396,0.905 -0.679,1.343 -1.024,2.181l-3.061 6.731c-0.166,0.34 -0.28,0.624 -0.48,1.025l-2.571 5.527c-0.353,0.733 -0.91,1.342 -0.91,2.481z"/>
   <path class="fil0" d="M285.584 348.084l12.805 0.001 -0.002 49.328c-0.001,1.042 -0.228,2.561 0.12,3.457 0.247,0.632 1.37,1.437 2.139,1.437l11.479 0c1.64,0 2.266,-1.352 2.264,-3.011l0.004 -51.207 14.105 -0.014c1.542,-0.203 1.894,-1.591 1.896,-3.004l0.001 -9.225c-0.001,-0.733 -0.146,-1.303 -0.508,-1.753 -0.254,-0.316 -0.888,-0.883 -1.376,-0.883l-44.057 0c-1.501,0 -1.9,1.591 -1.887,3.008l-0.005 9.805c0.038,0.881 0.291,1.224 0.801,1.646 0.692,0.572 1.072,0.415 2.221,0.415z"/>
   <path class="fil0" d="M176.946 402.316l30.69 -0.006c2.752,0 8.284,0.871 8.284,-1.885l0 -11.485c0,-1.105 -1.511,-1.647 -2.636,-1.692 -2.999,-0.004 -21.279,-0.353 -22.405,0.186l0 -49.517c0.001,-2.559 0.122,-4.707 -2.448,-4.707l-11.485 0c-2.752,0 -2.071,4.212 -2.071,6.966l0 54.977c0,1.5 -0.033,3.035 -0.007,4.529 0.032,1.809 1.28,2.634 2.078,2.634z"/>
  </g>
 </g>
</svg>
