<?xml version="1.0" encoding="UTF-8"?>
<!DOCTYPE svg PUBLIC "-//W3C//DTD SVG 1.1//EN" "http://www.w3.org/Graphics/SVG/1.1/DTD/svg11.dtd">
<!-- Creator: CorelDRAW 2021 (64-Bit) -->
<svg xmlns="http://www.w3.org/2000/svg" xml:space="preserve" width="500px" height="500px" version="1.1" style="shape-rendering:geometricPrecision; text-rendering:geometricPrecision; image-rendering:optimizeQuality; fill-rule:evenodd; clip-rule:evenodd"
viewBox="0 0 500 500"
 xmlns:xlink="http://www.w3.org/1999/xlink"
 xmlns:xodm="http://www.corel.com/coreldraw/odm/2003">
 <defs>
  <style type="text/css">
   <![CDATA[
    .fil0 {fill:#ADADAD}
   ]]>
  </style>
 </defs>
 <g id="Capa_x0020_1">
  <metadata id="CorelCorpID_0Corel-Layer"/>
  <g id="_2447992727952">
   <path class="fil0" d="M77.924 261.43c-33.173,10.182 -60.024,58.474 -51.241,101.871 4.146,20.485 17.102,40.798 27.893,49.837 9.795,8.203 31.851,22.495 45.502,23.156 9.849,0.476 4.527,0.689 8.741,-2.765 10.83,-14.805 -4.176,-196.195 5.597,-235.143 34.896,-139.071 235.706,-139.139 271.017,-0.057 9.987,39.336 -5.415,220.161 5.58,235.189 0.576,0.608 -1.935,5.917 14.632,1.347 57.86,-15.963 87.185,-79.923 57.797,-134.919 -7.673,-14.36 -24.705,-33.535 -41.536,-38.468 -2.732,-76.651 -5.166,-92.427 -43.237,-142.926 -24.143,-32.023 -80.877,-57.185 -128.755,-57.206 -27.392,-0.012 -54.017,6.67 -75.515,17.256 -18.834,9.276 -44.295,28.192 -53.211,39.981 -38.058,50.314 -40.644,66.322 -43.264,142.847z"/>
   <path class="fil0" d="M130.236 435.837c7.006,4.585 25.736,2.357 34.448,1.214 3.784,-37.024 1.443,-126.814 1.392,-169.231 -0.005,-13.106 0.021,-16.419 -13.796,-16.924 -34.194,-1.25 -26.487,-2.812 -26.419,66.951l0.307 112.891c2.777,9.017 0.284,1.683 4.068,5.099z"/>
   <path class="fil0" d="M333.739 388.337l1.221 48.579c49.308,4.874 38.987,4.177 39.003,-66.771 0.004,-16.824 3.32,-111.747 -2.681,-117.009 -7.894,-3.398 -33.429,-5.382 -36.865,3.768l-0.678 131.433z"/>
   <polygon class="fil0" points="272.023,411.127 289.658,411.159 289.901,289.451 271.873,289.669 "/>
   <polygon class="fil0" points="210.014,411.251 227.622,411.064 227.873,289.563 209.815,289.655 "/>
   <polygon class="fil0" points="302.988,385.62 320.789,386.817 320.513,314.366 303.709,314.547 "/>
   <polygon class="fil0" points="179.032,386.564 196.869,386.161 196.679,314.773 180.33,314.299 "/>
   <polygon class="fil0" points="241.131,386.22 258.682,386.501 258.546,314.514 242.072,314.341 "/>
  </g>
 </g>
</svg>
