<?xml version="1.0" encoding="UTF-8"?>
<!DOCTYPE svg PUBLIC "-//W3C//DTD SVG 1.1//EN" "http://www.w3.org/Graphics/SVG/1.1/DTD/svg11.dtd">
<!-- Creator: CorelDRAW 2021 (64-Bit) -->
<svg xmlns="http://www.w3.org/2000/svg" xml:space="preserve" width="500px" height="500px" version="1.1" style="shape-rendering:geometricPrecision; text-rendering:geometricPrecision; image-rendering:optimizeQuality; fill-rule:evenodd; clip-rule:evenodd"
viewBox="0 0 500 500"
 xmlns:xlink="http://www.w3.org/1999/xlink"
 xmlns:xodm="http://www.corel.com/coreldraw/odm/2003">
 <defs>
  <style type="text/css">
   <![CDATA[
    .fil0 {fill:#ADADAD}
   ]]>
  </style>
 </defs>
 <g id="Capa_x0020_1">
  <metadata id="CorelCorpID_0Corel-Layer"/>
  <g id="_2604337723216">
   <path class="fil0" d="M238.592 125.195c-21.953,0 -35.221,8.388 -45.447,20.47 -8.605,10.166 -24.394,54.59 -30.388,69.808 -1.805,4.58 -3.375,7.179 -5.147,11.552 -1.489,3.675 -3.436,7.553 -5.175,11.525 -13.994,31.966 -7.323,28.925 -10.821,39.276l-19.805 63.692c-5.365,17.495 -3.069,12.293 -20.529,29.569l-21.511 19.797c-1.702,1.424 -2.854,2.769 -4.434,4.355l-21.526 19.782c-1.656,1.459 -2.81,2.789 -4.401,4.389 -1.455,1.462 -2.448,2.614 -3.962,3.948 -8.6,7.573 -21.258,17.251 -13.817,34.485 4.371,10.124 13.264,13.642 24.15,13.642 9.322,0 33.527,-20.533 41.812,-26.744 11.538,-8.648 57.608,-42.585 66.969,-52.562 6.568,-7.002 26.469,-50.698 28.329,-58.683 3.247,0.757 24.984,15.175 29.357,18.104 3.53,2.364 5.92,4.056 9.596,6.225 3.625,2.139 27.175,17.225 28.319,19.142 3.829,6.414 23.868,80.33 26.567,85.054 4.736,8.29 11.948,12.262 19.123,12.979l4.819 0c5.337,-0.53 10.326,-2.797 13.866,-6.341 11.64,-11.656 6.042,-27.114 3.576,-41.869 -3.822,-22.861 -8.263,-58.935 -14.693,-78.471 -4.288,-13.024 -18.762,-23.553 -29.4,-32.124 -3.466,-2.792 -34.001,-27.534 -34.001,-28.402l18.457 -48.34c4.638,2.454 4.9,3.935 8.565,7.256 11.134,10.094 22.615,2.138 34.981,0.254 26.808,-4.084 9.201,-1.358 29.403,-1.358 7.987,0 18.889,-4.461 23.102,-8.539 23.412,-22.66 2.546,-52.984 -16.07,-52.984 -27.543,0 -24.685,8.404 -35.299,11.283 -3.922,1.063 -7.532,1.906 -11.283,2.779 -0.972,-3.638 -8.383,-10.948 -11.426,-16.699l19.289 -0.925c5.154,-0.419 13.604,-1.022 18.632,-1.583l28.126 -1.758c3.404,-0.38 6.884,0.123 10.29,-0.257 44.573,-4.972 19.373,4.015 43.188,3.651 15.938,-0.244 5.702,5.267 29.889,5.267 16.386,0 30.762,-14.385 30.762,-30.762 0,-16.08 -13.799,-30.762 -29.883,-30.762 -24.258,0 -17.698,4.867 -27.205,5.314 -4.635,0.218 -9.047,-0.423 -12.513,0.671 -4.191,1.324 -5.936,4.012 -9.594,4.529 -4.068,0.575 -7.257,-0.886 -12.193,-0.865l-140.644 -8.77z"/>
   <path class="fil0" d="M216.62 71.582c0,16.005 3.86,28.099 14.247,38.487 29.937,29.937 85.069,10.619 85.069,-36.73 0,-13.735 -6.732,-25.721 -13.839,-32.743 -5.227,-5.165 -6.609,-6.771 -13.392,-10.338 -5.903,-3.104 -12.135,-4.797 -18.437,-5.258l-7.214 0c-6.175,0.441 -12.325,1.994 -18.209,4.495 -9.438,4.011 -19.289,13.821 -23.471,23.111 -2.376,5.276 -4.754,11.825 -4.754,18.976z"/>
  </g>
 </g>
</svg>
