<?xml version="1.0" encoding="UTF-8"?>
<!DOCTYPE svg PUBLIC "-//W3C//DTD SVG 1.1//EN" "http://www.w3.org/Graphics/SVG/1.1/DTD/svg11.dtd">
<!-- Creator: CorelDRAW 2021 (64-Bit) -->
<svg xmlns="http://www.w3.org/2000/svg" xml:space="preserve" width="500px" height="500px" version="1.1" style="shape-rendering:geometricPrecision; text-rendering:geometricPrecision; image-rendering:optimizeQuality; fill-rule:evenodd; clip-rule:evenodd"
viewBox="0 0 500 500"
 xmlns:xlink="http://www.w3.org/1999/xlink"
 xmlns:xodm="http://www.corel.com/coreldraw/odm/2003">
 <defs>
  <style type="text/css">
   <![CDATA[
    .fil0 {fill:#ADADAD}
   ]]>
  </style>
 </defs>
 <g id="Capa_x0020_1">
  <metadata id="CorelCorpID_0Corel-Layer"/>
  <path class="fil0" d="M150.849 280.151c-6.802,-58.713 36.378,-105.355 87.152,-111.21 58.478,-6.742 104.51,36.124 110.788,86.746 7.319,59.018 -36.013,105.04 -86.105,111.57 -58.803,7.665 -105.96,-36.403 -111.835,-87.106zm265.636 -102.54c-3.193,-20.534 25.957,-24.013 29.498,-6.137 1.759,8.88 -4.419,16.89 -11.649,18.15 -9.134,1.592 -16.673,-4.449 -17.849,-12.013zm-390.908 212.635c1.3,13.282 10.992,24.514 20.503,28.9 11.434,5.273 32.274,3.481 46.176,3.481 99.301,0 198.603,0 297.905,0 33.391,0 66.209,6.552 79.94,-19.361 7.349,-13.869 4.251,-74.505 4.251,-95.052 0,-15.763 1.277,-138.262 -0.9,-147.955 -2.811,-12.517 -12.133,-22.429 -23.654,-26.1 -9.851,-3.14 -56.857,-1.954 -72.592,-1.878 -14.127,0.068 -10.742,0.751 -18.09,-6.739l-12.835 -11.981c-10.418,-10.713 -27.599,-30.98 -39.789,-34.703 -11.993,-3.663 -79.935,-1.714 -97.684,-1.642 -18.425,0.075 -24.931,6.117 -34.074,15.566l-36.702 37.76c-4.4,3.477 -16.28,1.736 -23.109,1.735 -16.549,0 -33.115,-0.076 -49.662,-0.015 -17.245,0.063 -26.895,5.903 -33.741,15.945 -8.395,12.313 -6.185,26.805 -6.185,43.435 0,16.669 -0.895,186.984 0.242,198.604z"/>
  <path class="fil0" d="M174.892 275.833c3.909,38.684 38.463,71.874 82.363,67.495 38.884,-3.878 71.538,-38.293 67.59,-82.161 -3.558,-39.534 -38.314,-72.284 -82.358,-68.197 -39.036,3.623 -72.063,38.651 -67.595,82.863z"/>
 </g>
</svg>
