<?xml version="1.0" encoding="UTF-8"?>
<!DOCTYPE svg PUBLIC "-//W3C//DTD SVG 1.1//EN" "http://www.w3.org/Graphics/SVG/1.1/DTD/svg11.dtd">
<!-- Creator: CorelDRAW 2021 (64-Bit) -->
<svg xmlns="http://www.w3.org/2000/svg" xml:space="preserve" width="500px" height="500px" version="1.1" style="shape-rendering:geometricPrecision; text-rendering:geometricPrecision; image-rendering:optimizeQuality; fill-rule:evenodd; clip-rule:evenodd"
viewBox="0 0 500 500"
 xmlns:xlink="http://www.w3.org/1999/xlink"
 xmlns:xodm="http://www.corel.com/coreldraw/odm/2003">
 <defs>
  <style type="text/css">
   <![CDATA[
    .fil0 {fill:#ADADAD}
   ]]>
  </style>
 </defs>
 <g id="Capa_x0020_1">
  <metadata id="CorelCorpID_0Corel-Layer"/>
  <path class="fil0" d="M329.356 375.708c6.079,-13.543 56.018,-94.85 55.614,-99.801 -0.361,-4.409 -49.757,-85.602 -55.626,-98.861l45.053 -0.063c5.909,13.627 56.076,93.702 55.59,100.197 -0.393,5.257 -49.783,85.249 -55.544,98.998l-45.087 -0.47zm67.619 38.906c9.175,-19.142 78.476,-133.16 78.023,-138.728 -0.062,-0.756 -71.687,-127.089 -78.356,-136.88l-85.521 0.213 -96.256 275.391 182.11 0.004z"/>
  <path class="fil0" d="M128.795 322.976c-8.057,-3.586 -12.692,-16.741 -16.955,-24.395 -51.375,-92.255 -52.839,-58.913 -13.359,-126.905 33.505,-57.704 15.456,-47.885 71.663,-47.808 -6.793,17.932 -55.777,91.432 -55.194,100.324 0.499,7.633 48.382,81.136 55.173,98.78l-41.328 0.004zm155.688 -237.59l-178.157 0.001c-5.375,2.452 -3.587,1.35 -7.338,7.151l-73.986 130.119c-0.414,6 69.187,124.062 77.72,138.226l85.629 0.114 96.132 -275.611z"/>
 </g>
</svg>
