<?xml version="1.0" encoding="UTF-8"?>
<!DOCTYPE svg PUBLIC "-//W3C//DTD SVG 1.1//EN" "http://www.w3.org/Graphics/SVG/1.1/DTD/svg11.dtd">
<!-- Creator: CorelDRAW 2021 (64-Bit) -->
<svg xmlns="http://www.w3.org/2000/svg" xml:space="preserve" width="500px" height="500px" version="1.1" style="shape-rendering:geometricPrecision; text-rendering:geometricPrecision; image-rendering:optimizeQuality; fill-rule:evenodd; clip-rule:evenodd"
viewBox="0 0 500 500"
 xmlns:xlink="http://www.w3.org/1999/xlink"
 xmlns:xodm="http://www.corel.com/coreldraw/odm/2003">
 <defs>
  <style type="text/css">
   <![CDATA[
    .fil0 {fill:#ADADAD}
   ]]>
  </style>
 </defs>
 <g id="Capa_x0020_1">
  <metadata id="CorelCorpID_0Corel-Layer"/>
  <path class="fil0" d="M351.73 360.848c-3.933,1.205 -99.19,28.066 -101.752,28.057 -2.459,-0.01 -100.285,-27.375 -101.972,-28.429l-6.894 -77.428 49.558 -0.132 3.747 39.573c7.15,1.885 52.094,14.65 55.059,14.722 2.697,0.066 47.579,-12.845 55.659,-14.693l5.796 -64.426 -172.104 -0.163 -4.401 -49.519 180.808 -0.111 4.513 -50.749 -189.575 -0.177 -4.687 -49.508 248.731 -0.135 -22.486 253.118zm-264.314 69.206l151.828 42.26c13.406,3.976 8.727,3.117 20.547,0.16l30.395 -8.422c33.82,-9.664 68.675,-18.575 101.782,-28.173l20.616 -5.825c0,-8.633 8.012,-89.149 8.958,-101.306 1.226,-15.737 3.73,-36.216 4.527,-50.606 1.265,-22.826 5.5,-53.371 6.751,-75.948 0.734,-13.243 4.153,-39.018 4.517,-50.615 0.397,-12.671 3.926,-37.359 4.497,-50.635 0.587,-13.678 3.915,-37.017 4.5,-50.632 0.259,-6.025 2.255,-20.486 2.255,-25.312l-397.178 0c0,4.758 2.103,19.411 2.251,25.316 0.205,8.231 1.897,16.994 2.254,25.312 0.585,13.615 3.913,36.954 4.5,50.631 0.352,8.173 1.895,17.038 2.25,25.316 0.571,13.276 4.101,37.965 4.499,50.635 0.255,8.169 1.986,16.895 2.25,25.316l2.266 25.3c0.829,14.957 3.661,35.498 4.5,50.632 0.453,8.164 1.782,16.869 2.25,25.316 0.454,8.175 1.777,16.78 2.251,25.316 0.821,14.811 3.763,35.823 4.494,50.637 0.397,8.042 2.24,17.06 2.24,25.327z"/>
 </g>
</svg>
