<?xml version="1.0" encoding="UTF-8"?>
<!DOCTYPE svg PUBLIC "-//W3C//DTD SVG 1.1//EN" "http://www.w3.org/Graphics/SVG/1.1/DTD/svg11.dtd">
<!-- Creator: CorelDRAW 2021 (64-Bit) -->
<svg xmlns="http://www.w3.org/2000/svg" xml:space="preserve" width="500px" height="500px" version="1.1" style="shape-rendering:geometricPrecision; text-rendering:geometricPrecision; image-rendering:optimizeQuality; fill-rule:evenodd; clip-rule:evenodd"
viewBox="0 0 500 500"
 xmlns:xlink="http://www.w3.org/1999/xlink"
 xmlns:xodm="http://www.corel.com/coreldraw/odm/2003">
 <defs>
  <style type="text/css">
   <![CDATA[
    .fil0 {fill:#ADADAD}
   ]]>
  </style>
 </defs>
 <g id="Capa_x0020_1">
  <metadata id="CorelCorpID_0Corel-Layer"/>
  <g id="_2604698584192">
   <path class="fil0" d="M107.001 59.528l35.306 0c11.264,0 22.525,2.036 31.465,4.528 4.223,1.178 6.104,2.329 9.624,3.744 2.389,0.961 9.016,5.141 11.312,6.856 16.333,12.198 23.356,32.524 23.356,53.772 0,7.727 -0.404,14.162 -2.053,20.915 -0.688,2.821 -1.409,5.387 -2.399,7.884 -9.364,23.599 -28.704,34.882 -52.821,39.733 -14.57,2.931 -36.019,2.426 -52.678,2.426 -0.084,-23.668 -0.427,-46.252 -0.427,-69.929 0,-5.984 -0.343,-10.986 -0.343,-17.14l-0.342 -52.789zm-37.369 -30.856c0,4.317 0.342,7.774 0.342,12.343l-0.004 31.884c-0.014,2.556 0.367,3.607 0.352,6.162 -0.098,17.214 0.338,33.999 0.338,50.739 0,34.18 0.686,67.688 0.686,101.813 6.24,0 11.266,-0.343 17.484,-0.343l54.163 -0.343c23.468,0 43.406,-5.323 59.536,-12.796 12.418,-5.754 21.735,-13.338 31.228,-22.934l7.965 -10.204c4.789,-7.232 9.002,-14.818 11.778,-24.217 1.772,-6.002 3.926,-16.662 4.003,-23.078l0.341 -8.937c-0.059,-1.76 -0.364,-2.111 -0.366,-4.091 -0.012,-9.101 -1.422,-19.18 -3.879,-27.661 -3.235,-11.172 -9.842,-24.109 -17.275,-32.431l-6.403 -6.966c-1.102,-0.848 -1.403,-1.167 -2.338,-2.118 -5.813,-5.914 -17.709,-12.676 -25.054,-16.082 -9.925,-4.602 -23.587,-7.91 -35.3,-9.609 -4.762,-0.69 -21.587,-2.263 -25.514,-1.723 -4.436,0.611 -29.451,0.249 -36.087,0.249 -6.291,0 -11.453,0.343 -17.826,0.343 -6.057,0 -12.113,0 -18.17,0z"/>
   <path class="fil0" d="M307.38 371.776c4.926,-13.674 11.301,-29.042 16.443,-42.861l7.689 -20.078c0.007,-0.016 0.321,-0.656 0.337,-0.689 0.024,-0.047 0.107,-0.1 0.125,-0.217 0.018,-0.117 0.078,-0.148 0.125,-0.217l12.486 32.078c1.4,3.685 2.858,6.824 4.183,10.557 2.293,6.459 15.794,39.006 16.582,42.376 -3.134,0 -4.983,0.347 -8.225,0.343l-57.931 0.343 8.186 -21.635zm8.265 -109.658c-0.122,1.456 -22.476,52.409 -22.851,53.252 -2.003,4.502 -3.766,8.637 -5.697,13.157l-28.795 66.503c-1.909,4.469 -3.785,8.813 -5.727,13.127 -1.012,2.251 -1.82,4.384 -2.865,6.733l-11.532 26.519c-1.013,2.251 -1.82,4.384 -2.866,6.733 -2.035,4.577 -3.841,8.793 -5.805,13.391l-4.352 10.046c-0.409,0.932 -1.162,2.479 -1.381,3.421l43.195 0c0.829,-1.727 1.644,-4.114 2.352,-5.877l14.398 -36.679c0.808,-2.012 1.507,-4.344 2.448,-6.121 2.398,0 3.281,-0.352 5.472,-0.355l41.097 -0.039c5.889,-0.66 31.413,-0.326 40.844,-0.291 2.466,0.009 3.774,-0.344 5.825,-0.344 0.469,2.011 1.653,4.192 2.449,6.121l15.429 36.333c0.795,1.978 1.7,4.35 2.69,6.224 3.621,-0.84 37.543,-0.343 44.225,-0.343l-23.605 -52.842c-4.079,-10.021 -10.826,-23.283 -14.837,-33.155l-11.752 -26.299c-0.977,-2.351 -2.057,-4.319 -2.989,-6.61 -3.17,-7.803 -8.303,-18.3 -11.851,-26.542l-23.757 -53.029c-0.797,-1.775 -5.437,-11.72 -5.822,-13.376 -11.695,0 -22.255,0.342 -33.94,0.342z"/>
   <path class="fil0" d="M121.264 349.519c2.361,-3.942 4.835,-7.658 7.283,-11.572 1.596,-2.551 20.546,-33.455 21.868,-34.346l0.002 92.209 -58.274 0 29.121 -46.291zm-65.461 46.293l0 30.168 94.7 0 -0.088 42.85 34.282 0 0.002 -42.85 28.429 0 0.023 -30.17 -28.475 0 0.023 -133.692 -41.116 0c-1.584,0 -10.482,14.834 -11.336,16.112 -0.927,1.386 -1.706,2.743 -2.673,4.184 -0.974,1.451 -1.774,2.657 -2.744,4.112 -12.872,19.31 -25.533,39.34 -38.393,58.618l-22.008 33.527c-1.51,2.266 -10.626,15.522 -10.626,17.141z"/>
   <path class="fil0" d="M384.322 174.364c0,19.403 -17.677,29.478 -33.593,29.478 -8.063,0 -10.888,0.094 -18.897,-2.355 -4.986,-1.525 -11.338,-4.537 -15.589,-7.378 -2.659,-1.778 -11.394,-8.75 -12.133,-11.52 -1.92,0.16 -6.478,5.548 -8.332,7.098l-8.04 7.385c-0.578,0.58 -0.948,1.001 -1.538,1.547 -0.74,0.685 -0.985,0.726 -1.716,1.37 -1.109,0.976 -2.013,2.032 -3.081,3.089 -1.3,1.287 -2.316,1.618 -3.349,3.166 0.468,1.76 4.181,5.037 5.536,6.121 2.361,1.891 2.827,2.604 6.409,5.247 13.656,10.074 36.103,16.743 53.531,16.743 16.04,0 26.147,-1.162 40.161,-6.804 5.012,-2.017 11.701,-5.742 15.612,-9.069 6.334,-5.387 10.758,-10.415 14.955,-17.954 5.926,-10.643 6.746,-19.945 6.746,-32.677 0,-12.759 -4.845,-23.874 -13.454,-32.482 -5.247,-5.246 -6.454,-6.146 -12.922,-10.047 -15.842,-9.554 -39.389,-13.421 -54.53,-20.2 -1.687,-0.754 -2.293,-1.079 -3.883,-1.944 -1.446,-0.787 -2.3,-1.363 -3.591,-2.237 -13.684,-9.256 -13.523,-29.581 1.305,-39.361 5.196,-3.428 10.866,-5.284 17.424,-6.228 14.115,-2.033 30.385,2.759 40.424,12.831 1.19,1.194 2.167,2.442 3.516,3.343 2.157,-1.441 9.364,-10.209 11.736,-12.605 1.143,-1.155 1.767,-1.673 2.808,-3.02l8.768 -9.744c-1.591,-2.384 -8.363,-6.899 -11.035,-8.508 -41.753,-25.138 -111.366,-12.374 -120.748,34.415 -2.822,14.074 -0.517,30.259 6.793,41.148 4.279,6.376 8.677,10.863 15.286,15.223 7.879,5.197 18.515,8.893 28.502,11.95 1.294,0.396 2.24,0.754 3.593,1.204 8.628,2.869 18.091,5.174 26.305,9.347 3.663,1.86 8.932,5.342 11.59,8.635 1.523,1.886 2.866,3.685 3.765,6.176 0.758,2.102 1.666,5.718 1.666,8.617z"/>
  </g>
 </g>
</svg>
