<?xml version="1.0" encoding="UTF-8"?>
<!DOCTYPE svg PUBLIC "-//W3C//DTD SVG 1.1//EN" "http://www.w3.org/Graphics/SVG/1.1/DTD/svg11.dtd">
<!-- Creator: CorelDRAW 2021 (64-Bit) -->
<svg xmlns="http://www.w3.org/2000/svg" xml:space="preserve" width="500px" height="500px" version="1.1" style="shape-rendering:geometricPrecision; text-rendering:geometricPrecision; image-rendering:optimizeQuality; fill-rule:evenodd; clip-rule:evenodd"
viewBox="0 0 500 500"
 xmlns:xlink="http://www.w3.org/1999/xlink"
 xmlns:xodm="http://www.corel.com/coreldraw/odm/2003">
 <defs>
  <style type="text/css">
   <![CDATA[
    .fil0 {fill:#adadad}
   ]]>
  </style>
 </defs>
 <g id="Capa_x0020_1">
  <metadata id="CorelCorpID_0Corel-Layer"/>
  <path class="fil0" d="M138.982 257.713l-13.658 -149.633 248.965 -0.213 -4.638 49.891 -189.955 -0.236 4.373 51.012 181.122 0.123 -13.719 152.216c-10.343,3.063 -97.869,27.957 -101.959,27.813l-101.298 -27.75 -7.117 -77.959 49.788 0.573 3.985 39.344c10.824,2.326 48.928,14.466 55.587,14.062l54.655 -14.361 5.559 -64.509 -171.69 -0.373zm109.045 217.287l4.153 0c7.781,-4.391 30.101,-8.816 40.303,-11.852 13.122,-3.907 26.689,-7.462 39.575,-11.002 10.939,-3.005 75.964,-19.765 79.497,-22.781 1.293,-1.491 25.513,-266.536 27.926,-304.317 2.077,-32.529 7.881,-68.035 8.78,-100.048l-396.522 0.295c0.832,31.72 6.511,68.038 8.825,100.758 2.756,38.958 26.304,301.469 27.693,303.294 2.198,2.887 36.727,11.192 39.858,12.102 14.132,4.11 115.819,31.083 119.912,33.551z"/>
 </g>
</svg>
