<?xml version="1.0" encoding="UTF-8"?>
<!DOCTYPE svg PUBLIC "-//W3C//DTD SVG 1.1//EN" "http://www.w3.org/Graphics/SVG/1.1/DTD/svg11.dtd">
<!-- Creator: CorelDRAW 2021 (64-Bit) -->
<svg xmlns="http://www.w3.org/2000/svg" xml:space="preserve" width="500px" height="500px" version="1.1" style="shape-rendering:geometricPrecision; text-rendering:geometricPrecision; image-rendering:optimizeQuality; fill-rule:evenodd; clip-rule:evenodd"
viewBox="0 0 500 500"
 xmlns:xlink="http://www.w3.org/1999/xlink"
 xmlns:xodm="http://www.corel.com/coreldraw/odm/2003">
 <defs>
  <style type="text/css">
   <![CDATA[
    .fil0 {fill:#ADADAD}
   ]]>
  </style>
 </defs>
 <g id="Capa_x0020_1">
  <metadata id="CorelCorpID_0Corel-Layer"/>
  <path class="fil0" d="M50.999 25l398.002 0c14.3,0 25.999,11.7 25.999,26l0 398.001c0,14.3 -11.699,25.999 -25.999,25.999l-398.002 0c-14.3,0 -25.999,-11.699 -25.999,-25.999l0 -398.001c0,-14.3 11.699,-26 25.999,-26zm355.292 266.627c2.73,-1.063 32.006,-19.949 33.372,-21.499 -2.531,-6.129 -10.537,-15.243 -14.575,-18.802 -30.669,-27.029 -95.698,-20.968 -108.612,26.307 -5.258,19.247 0.084,40.649 9.593,52.979 9.451,12.254 22,19.562 39.23,27.298 13.476,6.051 35.837,13.416 41.654,24.197 13.8,25.576 -27.62,43.053 -54.892,22.69 -8.972,-6.699 -9.907,-11.078 -15.351,-17.545l-35.05 20.083c2.034,6.18 10.483,16.641 13.913,20.057 19.368,19.289 46.969,26.878 75.995,24.063 39.007,-3.784 66.405,-28.42 60.313,-71.878 -7.412,-52.883 -78.342,-56.063 -91.362,-76.116 -10.904,-16.795 6.079,-36.871 28.869,-28.164 3.996,1.526 8.012,4.698 9.952,6.896 2.425,2.745 4.275,6.57 6.951,9.434zm-258.291 120.2c2.176,9.687 15.393,22.784 21.377,27.216 8.828,6.538 21.224,11.374 35.063,12.553 32.536,2.773 55.592,-8.914 66.078,-29.891 10.66,-21.326 7.368,-61.757 7.368,-88.691 0,-15.392 0.807,-86.055 -0.215,-94.93l-43.129 0.08c-0.776,8.165 -0.17,113.479 -0.17,124.832 0,18.435 3.583,43.671 -13.194,48.86 -9.015,2.789 -18.319,1.382 -24.88,-3.392 -6.071,-4.415 -8.452,-10.45 -13.305,-17.515l-34.993 20.878z"/>
 </g>
</svg>
