<?xml version="1.0" encoding="UTF-8"?>
<!DOCTYPE svg PUBLIC "-//W3C//DTD SVG 1.1//EN" "http://www.w3.org/Graphics/SVG/1.1/DTD/svg11.dtd">
<!-- Creator: CorelDRAW 2021 (64-Bit) -->
<svg xmlns="http://www.w3.org/2000/svg" xml:space="preserve" width="500px" height="500px" version="1.1" style="shape-rendering:geometricPrecision; text-rendering:geometricPrecision; image-rendering:optimizeQuality; fill-rule:evenodd; clip-rule:evenodd"
viewBox="0 0 500 500"
 xmlns:xlink="http://www.w3.org/1999/xlink"
 xmlns:xodm="http://www.corel.com/coreldraw/odm/2003">
 <defs>
  <style type="text/css">
   <![CDATA[
    .fil0 {fill:#FEFEFE}
   ]]>
  </style>
 </defs>
 <g id="Capa_x0020_1">
  <metadata id="CorelCorpID_0Corel-Layer"/>
  <g id="_2447987508768">
   <path class="fil0" d="M95.701 250.158c2.328,-0.543 14.543,-7.549 18.082,-9.318l18.357 -9.58c1.409,-0.703 2.323,-1.302 3.667,-1.974l29.281 -15.311c5.312,-2.653 21.445,-10.958 25.539,-13.411 5.53,-3.312 6.27,-2.06 8.384,-8.272l30.552 -86.583c1.011,-2.89 1.826,-5.564 2.93,-8.354l5.794 -16.505c0.911,-2.752 1.961,-5.31 2.89,-8.125 1.715,-5.2 7.9,-21.473 8.695,-24.887 0.038,0.054 0.085,0.078 0.098,0.17 0.014,0.093 0.08,0.134 0.097,0.172 0.007,0.014 0.246,0.559 0.246,0.561l5.434 15.521c3.185,9.618 6.88,19.282 10.074,28.882 2.067,6.212 4.899,14.822 7.229,20.711l14.394 41.22c0.975,2.918 1.899,5.419 2.883,8.4l7.254 20.687c0.901,2.728 3.319,10.894 4.591,12.334 2.018,2.284 11.435,6.682 14.221,8.075l40.29 20.957c9.921,4.922 19.375,10.379 29.276,15.315 2.759,1.376 17.633,8.869 18.353,9.852 -1.723,0.402 -5.481,2.749 -7.343,3.671 -1.35,0.668 -2.129,1.207 -3.49,1.882l-38.233 20.058c-5.406,3.027 -11.227,5.459 -16.584,8.667l-29.251 15.34c-1.344,0.666 -2.485,1.168 -3.724,1.917 -3.234,1.957 -3.423,2.616 -4.685,6.33 -4.198,12.362 -8.803,24.71 -13.224,37.014l-2.989 8.296c-2.691,6.753 -4.764,13.638 -7.291,20.381 -4.008,10.699 -7.655,22.472 -11.779,32.819 -0.512,1.286 -1.04,2.735 -1.513,4.128l-8.864 24.719c-0.759,2.236 -5.584,14.697 -5.738,16.56l-0.197 -0.34c-0.005,-0.009 -0.265,-0.532 -0.267,-0.539 -0.231,-0.512 -0.196,-0.453 -0.378,-0.966l-9.333 -26.667c-0.492,-1.471 -0.883,-2.747 -1.453,-4.188l-2.842 -8.174c-4.584,-13.816 -9.871,-27.359 -14.437,-41.175 -4.573,-13.838 -9.614,-27.367 -14.44,-41.173l-7.183 -20.49c-2.38,-6.588 -2.208,-4.741 -8.24,-8.415l-7.39 -3.892c-2.598,-1.299 -4.687,-2.475 -7.255,-3.759l-29.277 -15.313c-1.35,-0.669 -2.13,-1.208 -3.491,-1.883l-10.92 -5.735c-1.236,-0.644 -2.529,-1.23 -3.767,-1.874l-10.922 -5.732c-1.345,-0.672 -2.259,-1.27 -3.667,-1.973 -3.554,-1.775 -11.553,-5.79 -14.632,-7.666 -0.891,-0.542 -2.797,-1.592 -3.812,-1.828l0 -0.537zm-17.996 -0.538c0,4.92 2.333,5.602 6.178,7.523 1.422,0.711 2.655,1.471 4.027,2.152l99.306 51.929c1.065,0.555 1.041,0.73 1.395,1.829l6.365 18.351c4.298,12.295 8.612,24.226 12.826,36.608 5.211,15.313 10.963,30.372 16.051,45.741 5.06,15.281 10.954,30.485 16.05,45.741 0.87,2.605 3.695,11.921 5.061,13.477 2.346,2.672 6.665,2.77 8.913,-0.098 1.444,-1.843 9.958,-27.227 11.613,-31.642 4.475,-11.945 8.606,-24.401 13.083,-36.35 3.985,-10.636 7.213,-21.272 11.398,-31.856 0.604,-1.528 1.118,-2.967 1.635,-4.544 2.036,-6.222 4.472,-11.976 6.511,-18.206l3.286 -9.072c3.405,-9.087 6.395,-18.385 9.819,-27.524 0.696,-1.855 1.168,-2.242 3.022,-3.158l60.974 -31.969c1.39,-0.778 2.767,-1.356 4.119,-2.06l40.454 -21.329c3.32,-2.184 3.305,-7.006 0.147,-9.352 -1.585,-1.179 -46.9,-24.545 -52.785,-27.534l-6.178 -3.223c-7.474,-3.795 -14.849,-8.01 -22.377,-11.738l-20.324 -10.568c-0.775,-0.386 -1.199,-0.594 -1.973,-0.981l-4.04 -2.139c-1.14,-0.593 -0.995,-0.682 -1.396,-1.828l-16.034 -46.026c-1.085,-3.105 -2.191,-6.001 -3.226,-9.133 -5.099,-15.429 -10.919,-30.591 -16.049,-46.011 -5.602,-16.836 -11.968,-33.532 -17.595,-50.377 -2.159,-6.465 -2.611,-11.253 -8.357,-11.253 -4.018,0 -4.754,3.549 -5.909,6.448 -3.394,8.513 -6.276,18.895 -9.669,27.406 -1.174,2.943 -2.05,6.192 -3.224,9.136 -3.278,8.222 -6.445,19.248 -9.748,27.595 -3.563,9.004 -6.106,18.403 -9.669,27.406 -2.378,6.009 -4.069,12.264 -6.446,18.271 -1.21,3.059 -2.013,6.077 -3.223,9.135 -3.262,8.244 -6.483,19.168 -9.746,27.598 -1.202,3.106 -2.046,6.023 -3.221,9.137 -1.012,2.68 -0.484,1.958 -2.98,3.199l-20.23 10.661c-1.352,0.704 -2.729,1.281 -4.119,2.06 -7.347,4.114 -14.984,7.739 -22.388,11.727l-6.152 3.25c-3.885,2.327 -8.158,4.206 -12.114,6.421l-26.32 13.705c-3.296,1.776 -11.621,5.789 -14.214,7.544 -0.977,0.661 -2.527,2.464 -2.527,3.921z"/>
   <polygon class="fil0" points="288.952,292.543 251.994,255.646 251.877,395.876 "/>
   <path class="fil0" d="M252.059 244.789c1.269,-0.924 11.212,-11.246 13.252,-13.31l20.038 -19.989c3.73,-3.781 3.61,-2.132 1.447,-8.212 -2.337,-6.571 -4.558,-13.183 -6.877,-19.707 -4.649,-13.075 -9.343,-26.395 -13.757,-39.439 -0.283,-0.836 -12.905,-37.983 -13.943,-39.245l-0.14 105.505c-0.008,9.668 -0.358,25.525 -0.02,34.397z"/>
   <path class="fil0" d="M211.159 208.243c2.628,3.053 6.205,6.26 9.128,9.176l27.261 27.184 0.052 -140.021 -36.441 103.661z"/>
   <path class="fil0" d="M211.148 292.211c0.221,1.65 8.305,24.122 9.067,26.292 3.057,8.702 6.02,17.159 9.07,25.875 1.746,4.987 18.091,50.948 18.033,51.497l0.208 -139.876c-1.042,0.527 -1.65,1.39 -2.477,2.23l-15.745 15.955c-3.024,3.06 -14.739,15.17 -18.156,18.027z"/>
   <path class="fil0" d="M208.383 211.616c-1.536,0.311 -15.22,7.688 -17.787,9.068 -11.413,6.139 -23.325,12.058 -34.707,18.205 -2.809,1.517 -5.879,2.993 -8.672,4.504 -1.983,1.075 -7.145,3.446 -8.492,4.704l105.661 0.001c-1.154,-1.572 -19.785,-19.746 -22.777,-22.866 -0.812,-0.847 -1.307,-1.596 -2.143,-2.425l-11.083 -11.191z"/>
   <path class="fil0" d="M291.504 211.646c-1.247,0.823 -16.655,16.709 -18.139,18.217l-11.219 11.347c-1.415,1.44 -5.987,5.16 -6.75,6.888l105.818 -0.011 -34.787 -18.356c-5.783,-3.09 -11.769,-6.029 -17.506,-9.096 -2.964,-1.585 -5.657,-2.938 -8.628,-4.525 -1.859,-0.993 -7.063,-3.971 -8.789,-4.464z"/>
   <polygon class="fil0" points="292.065,289.069 361.415,252.593 360.263,252.559 256.05,252.559 256.586,252.546 255.531,252.648 "/>
   <path class="fil0" d="M207.9 289.06c1.143,-0.572 7.729,-7.577 9.21,-9.072 3.097,-3.126 5.987,-6.062 9.082,-9.186l9.222 -9.044c1.73,-1.751 7.992,-7.654 8.877,-9.185l-105.737 0.12 69.346 36.367z"/>
   <path class="fil0" d="M110.474 115.815c0,3.715 3.628,6.182 7.185,9.74l42.84 42.855c2.895,2.897 5.634,5.804 8.59,8.604 3.813,3.612 9.607,0.548 9.607,-4.237 0,-3.29 -4.721,-7.007 -6.648,-8.934l-38.945 -38.96c-2.663,-2.662 -5.128,-5.129 -7.79,-7.791 -2.775,-2.777 -7.92,-9.747 -13.039,-5.118 -0.721,0.652 -1.8,2.601 -1.8,3.841z"/>
   <path class="fil0" d="M320.781 325.927c0,4.282 2.541,5.633 6.647,9.74l46.197 46.213c3.279,3.28 5.592,6.919 9.737,6.919 2.869,0 5.372,-2.445 5.372,-5.911 0,-2.417 -1.487,-3.504 -2.753,-4.77l-54.39 -54.408c-1.747,-1.751 -2.579,-2.889 -5.439,-2.889 -2.671,0 -5.371,2.417 -5.371,5.106z"/>
   <path class="fil0" d="M321.049 172.777c0,4.432 5.086,8.786 10.542,3.291l27.262 -27.271c5.259,-5.261 10.32,-10.324 15.579,-15.584 2.662,-2.663 5.126,-5.129 7.789,-7.792 2.753,-2.754 6.781,-5.84 6.781,-8.799 0,-5.814 -5.553,-7.732 -9.711,-4.342l-55.086 55.056c-1.301,1.298 -3.156,2.989 -3.156,5.441z"/>
   <path class="fil0" d="M109.937 383.963c0,3.402 2.708,5.911 5.371,5.911 3.616,0 5.566,-3.015 8.931,-6.382l50.629 -50.647c2.765,-2.765 3.022,-2.563 3.022,-6.381 0,-1.981 -2.458,-4.568 -5.103,-4.568 -3.12,0 -3.258,0.438 -5.842,3.023l-27.128 27.137c-5.213,5.215 -10.23,10.234 -15.444,15.45l-11.549 11.553c-1.301,1.301 -2.887,2.423 -2.887,4.904z"/>
  </g>
 </g>
</svg>
