<?xml version="1.0" encoding="UTF-8"?>
<!DOCTYPE svg PUBLIC "-//W3C//DTD SVG 1.1//EN" "http://www.w3.org/Graphics/SVG/1.1/DTD/svg11.dtd">
<!-- Creator: CorelDRAW 2021 (64-Bit) -->
<svg xmlns="http://www.w3.org/2000/svg" xml:space="preserve" width="500px" height="500px" version="1.1" style="shape-rendering:geometricPrecision; text-rendering:geometricPrecision; image-rendering:optimizeQuality; fill-rule:evenodd; clip-rule:evenodd"
viewBox="0 0 500 500"
 xmlns:xlink="http://www.w3.org/1999/xlink"
 xmlns:xodm="http://www.corel.com/coreldraw/odm/2003">
 <defs>
  <style type="text/css">
   <![CDATA[
    .fil0 {fill:#ADADAD}
   ]]>
  </style>
 </defs>
 <g id="Capa_x0020_1">
  <metadata id="CorelCorpID_0Corel-Layer"/>
  <g id="_2447559009024">
   <path class="fil0" d="M167.463 167.511c-0.349,54.66 0.266,109.325 -0.441,163.889 -0.14,10.717 8.605,59.206 -32.842,46.434l-53.518 -30.113 -0.122 -195.681c12.475,-8.352 28.134,-16.347 41.281,-24.139l127.988 -72.765 127.045 71.834c5.727,3.128 40.315,22.861 41.284,26.196l1.002 194.554 -151.112 87.474c-17.687,10.368 -16.106,11.623 -33.925,1.512 -33.445,-18.976 -20.532,-24.349 -60.982,-5.443 1.678,6.666 3.57,6.06 16.295,13.615 70.622,41.928 50.872,41.208 138.262,-9.236 25.678,-14.822 52.943,-30.584 78.599,-45.686 46.46,-27.348 43.072,-16.621 43.144,-83.011 0.044,-41.431 -0.014,-82.876 0.001,-124.319 0.01,-21.943 3.453,-39.076 -9.411,-51.59 -10.144,-9.867 -131.68,-77.132 -157.975,-92.695 -36.238,-21.446 -38.005,-16.132 -81.575,9.46l-118.877 68.476c-12.952,7.646 -27.605,13.4 -30.808,30.042l-0.618 189.171c-0.289,35.714 9.98,37.285 59.856,64.319 32.857,17.809 72.821,14.928 84.631,-19.603 7.004,-20.482 3.916,-145.254 3.96,-183.315 0.035,-28.921 1.798,-29.401 -7.702,-30.69l-23.44 1.31z"/>
   <path class="fil0" d="M243.702 278.427l-30.276 0.331c-4.136,85.49 131.655,76.068 158.913,40.553 11.031,-14.373 14.021,-36.466 7.225,-52.381 -7.493,-17.551 -32.676,-24.924 -51.701,-28.253 -12.539,-2.194 -56.819,-7.341 -67.889,-13.138 -12.561,-6.579 -18.21,-34.213 34.691,-35.026 40.987,-0.63 42.981,11.711 52.144,33.722 29.612,1.619 30.685,2.902 29.056,-10.63 -8.069,-67.02 -113.359,-62.131 -142.829,-33.486 -18.958,18.43 -18.647,47.206 -5.151,63.104 29.449,34.691 138.102,10.017 120.471,54.156 -10.108,25.303 -74.572,18.378 -89.277,10.477 -10.082,-5.417 -12.004,-16.449 -15.377,-29.429z"/>
  </g>
 </g>
</svg>
