<?xml version="1.0" encoding="UTF-8"?>
<!DOCTYPE svg PUBLIC "-//W3C//DTD SVG 1.1//EN" "http://www.w3.org/Graphics/SVG/1.1/DTD/svg11.dtd">
<!-- Creator: CorelDRAW 2021 (64-Bit) -->
<svg xmlns="http://www.w3.org/2000/svg" xml:space="preserve" width="500px" height="500px" version="1.1" style="shape-rendering:geometricPrecision; text-rendering:geometricPrecision; image-rendering:optimizeQuality; fill-rule:evenodd; clip-rule:evenodd"
viewBox="0 0 500 500"
 xmlns:xlink="http://www.w3.org/1999/xlink"
 xmlns:xodm="http://www.corel.com/coreldraw/odm/2003">
 <defs>
  <style type="text/css">
   <![CDATA[
    .fil1 {fill:#D2D3D5}
    .fil2 {fill:#BDBFC1}
    .fil0 {fill:#848688}
    .fil3 {fill:#ADADAD}
   ]]>
  </style>
 </defs>
 <g id="Capa_x0020_1">
  <metadata id="CorelCorpID_0Corel-Layer"/>
  <g id="_2604669734928">
   <path class="fil0" d="M104.614 162.15c1.655,2.059 6.388,14.418 8.235,18.384l4.061 9.314c1.17,2.538 3.783,6.616 3.835,9.584 10.809,0.252 14.947,-0.918 23.585,2.941 5.15,2.302 11.629,7.669 13.418,13.672 5,16.784 2.678,30.301 -4.127,44.492 1.744,0.31 1.705,1.392 2.734,3.177l12.084 18.457c0.476,0.745 0.851,1.084 1.287,1.867l2.401 3.886c0.427,0.615 0.725,0.823 1.376,1.755l5.015 7.164c0.999,1.289 1.49,1.929 2.439,3.405 0.581,0.904 0.776,1.121 1.271,1.887l7.99 10.413c1.028,1.383 3.509,4.031 3.809,5.609 1.547,-1.134 3.397,-1.791 5.064,-3.434 5.884,-5.798 3.699,-9.928 -1.104,-16.62 -0.471,-0.656 -0.545,-0.695 -1.026,-1.302l-6.691 -7.84c-14.618,-18.068 -25.818,-33.533 -17.043,-59.293 3.924,-11.52 13.497,-20.378 23.195,-26.604 14.067,-9.034 40.928,-7.446 57.634,-5.071 7.268,1.032 10.231,1.613 9.652,6.87l-3.438 29.873c-0.46,2.666 -1.078,4.628 -4.585,3.715 -4.497,-1.173 -10.308,-5.358 -18.998,-5.824 -7.206,-0.385 -14.654,-1.197 -19.507,4.923 -1.407,1.773 -2.511,2.739 -3.121,5.122 -1.651,6.45 4.305,11.016 8.54,15.929 1.222,1.418 2.483,2.912 3.787,4.458 8.238,9.762 22.817,27.129 19.885,45.968 -1.768,11.365 -4.643,14.822 -10.128,23.139 -2.705,4.101 -12.193,14.344 -16.406,16.149 1.355,0.127 3.882,3.187 4.713,4.106 0.872,0.963 1.639,1.586 2.358,2.332 2.179,2.259 4.101,4.699 6.934,7.187l12.158 11.375c0.782,0.671 0.453,0.4 1.217,1.131 1.88,1.799 2.18,1.555 3.725,3.267 0.223,0.247 0.199,0.237 0.641,0.617l9.254 7.989c0.924,0.743 1.62,1.477 2.477,2.212 1.175,1.007 0.484,0.266 1.551,0.864 1.185,0.664 0.045,-0.215 1.169,1.084 0.262,0.303 0.372,0.426 0.575,0.653 1.849,2.073 4.302,3.707 6.517,5.203l3.386 2.525c1.473,1.23 1.212,0.924 2.789,1.901l10.927 7.883c0.635,0.432 0.173,0.167 0.689,0.491l9.582 5.803c1.306,1.334 1.029,0.468 -0.172,1.078 3.671,0.979 4.157,1.219 6.471,-1.127 3.028,-3.072 13.67,-12.545 15.322,-15.311 9.838,-11.503 14.886,-18.878 23.199,-32.033 1.367,-2.162 6.061,-9.795 6.718,-12.107l-23.511 -0.1c-2.933,0.026 -5.004,0.108 -5.809,-2.253l-1.59 -30.146c-0.496,-10.17 -0.835,-20.25 -1.503,-30.253 -0.676,-10.129 -0.819,-20.591 -1.665,-30.55 -0.707,1.189 -6.197,28.089 -6.688,31.353 -1.214,8.072 -4.836,23.09 -6.479,31.934 -1.015,5.468 -2.154,10.772 -3.284,15.925 -0.534,2.435 -1.069,5.401 -1.532,7.924 -1.567,8.522 -2.702,6.111 -22.805,6.299 -3.134,0.028 -6.288,-0.012 -9.419,0.044 -3.529,0.062 -5.396,0.922 -8.033,-1.006 -0.684,-4.752 8.056,-45.267 9.238,-52.853 0.93,-5.969 2.242,-11.743 3.378,-17.827l14.963 -78.705c1.829,-9.7 -0.043,-7.319 23.983,-7.319l31.364 -0.001c8.778,-0.02 7.21,-0.178 7.932,12.871 0.174,3.143 0.464,6.579 0.608,9.806 0.305,6.876 0.739,13.194 0.956,20.025 0.16,5.014 1.802,36.658 2.369,39.525 2.833,-5.222 6.813,-15.036 9.52,-20.904 3.232,-7.008 6.166,-14.541 9.582,-21.405l9.58 -21.381c1.434,-3.453 2.968,-6.948 4.707,-10.588 0.799,-1.67 1.514,-3.817 2.365,-5.507 1.099,-2.183 2.034,-2.632 5.252,-2.448 0.123,-5.07 1.333,-11.718 0.767,-16.507 -0.779,-1.446 -27.886,-14.017 -29.589,-14.692 -10.504,-4.164 -20.749,-8.335 -32.515,-11.739 -52.883,-15.298 -103.995,-17.933 -158.626,-10.112 -9.076,1.299 -28.974,4.848 -37.214,7.116 -3.681,1.014 -29.813,7.437 -33.625,10.186z"/>
   <path class="fil1" d="M104.614 162.15c3.812,-2.749 29.944,-9.172 33.625,-10.186 8.24,-2.268 28.138,-5.817 37.214,-7.116 54.631,-7.821 105.743,-5.186 158.626,10.112 11.766,3.404 22.011,7.575 32.515,11.739 1.703,0.675 28.81,13.246 29.589,14.692 0.566,4.789 -0.644,11.437 -0.767,16.507 11.146,0.679 24.014,0.255 35.342,0.306 3.674,0.017 15.109,-0.393 17.915,0.234 4.486,1.004 0.938,9.821 0.468,13.458 2.71,-2.524 24.37,-55.032 25.859,-61.87 -1.757,-1.423 -7.487,-4.156 -9.88,-5.383l-30.374 -14.697c-31.042,-13.584 -55.378,-22.666 -89.143,-31.561 -50.7,-13.356 -110.548,-18.943 -162.66,-12.312 -28.817,3.667 -57.669,9.867 -84.562,20.868 -3.473,1.421 -7.249,3.55 -10.355,4.567 0.418,4.025 10.271,33.283 12.329,38.411 0.811,2.024 4.202,10.796 4.259,12.231z"/>
   <path class="fil2" d="M79.919 289.158c1.249,0.361 10.053,10.966 11.258,12.262 6.74,7.249 14.281,14.156 21.382,20.951l4.147 3.704c0.875,0.736 1.305,0.959 2.167,1.754l17.11 13.867c1.293,0.959 8.061,5.678 8.523,6.538 0.581,-0.92 3.149,-17.449 3.615,-20.152 0.601,-3.487 1.133,-6.931 1.814,-10.4 0.557,-2.836 0.591,-7.608 4.808,-6.108 6.718,2.39 8.446,4.135 17.743,6.101 6.901,1.459 14.551,2.057 21.541,0.482 -0.3,-1.578 -2.781,-4.226 -3.809,-5.609l-7.99 -10.413c-0.495,-0.766 -0.69,-0.983 -1.271,-1.887 -0.949,-1.476 -1.44,-2.116 -2.439,-3.405l-5.015 -7.164c-0.651,-0.932 -0.949,-1.14 -1.376,-1.755l-2.401 -3.886c-0.436,-0.783 -0.811,-1.122 -1.287,-1.867l-12.084 -18.457c-1.029,-1.785 -0.99,-2.867 -2.734,-3.177 -2.012,3.595 -3.939,8.111 -6.151,11.205 -7.029,9.829 -16.209,18.222 -28.736,22.235 -4.836,1.549 -8.892,2.351 -14.547,2.848 -18.703,1.64 -16.671,-0.985 -17.118,-7.862l-1.591 -23.571 -5.559 23.766z"/>
   <path class="fil3" d="M276.614 276.57c2.444,-12.66 4.763,-25.293 7.167,-37.872 0.988,-5.166 6.238,-35.749 7.405,-37.733 5.567,-0.416 53.041,-0.606 55.841,0.169l4.922 91.667c1.213,-1.409 9.103,-19.628 10.469,-22.931 3.194,-7.725 29.806,-65.78 30.664,-68.986l55.011 0.361c-0.631,5.885 -2.394,13.038 -3.537,19.077l-17.763 93.957c-1.206,6.235 -2.281,12.528 -3.547,18.784 -0.751,3.714 -2.523,16.048 -3.758,18.559l-33.442 0.34 20.624 -114.796c-12.94,28.468 -25.452,57.608 -38.15,86.263 -2.534,5.716 -11.243,24.689 -12.694,28.937l-30.432 -0.124c-0.285,-18.641 -1.842,-38.422 -2.773,-57.147 -0.479,-9.649 -0.943,-19.286 -1.436,-28.947 -0.24,-4.703 -0.471,-9.429 -0.708,-14.189l-0.7 -12.91 -23.463 113.317 -34.092 0.445 14.392 -76.241zm75.323 78.868c6.886,-0.881 4.71,1.837 9.314,-8.311 1.834,-4.041 3.543,-8.253 5.378,-12.26 3.777,-8.249 6.964,-16.3 10.821,-24.47l21.544 -49.126 0.177 1.777c-0.058,0.525 -0.266,1.373 -0.37,1.945l-1.99 11.038c-1.136,6.298 -7.397,42.791 -8.04,43.688l-4.699 26.726c-1.85,10.226 -2.586,8.497 20.81,8.314 16.976,-0.133 16.967,1.394 18.234,-5.339l6.184 -32.647c3.303,-17.569 6.582,-34.896 9.915,-52.437 3.296,-17.344 7.11,-35.219 9.926,-52.44 0.47,-3.637 4.018,-12.454 -0.468,-13.458 -2.806,-0.627 -14.241,-0.217 -17.915,-0.234 -11.328,-0.051 -24.196,0.373 -35.342,-0.306 -3.218,-0.184 -4.153,0.265 -5.252,2.448 -0.851,1.69 -1.566,3.837 -2.365,5.507 -1.739,3.64 -3.273,7.135 -4.707,10.588l-9.58 21.381c-3.416,6.864 -6.35,14.397 -9.582,21.405 -2.707,5.868 -6.687,15.682 -9.52,20.904 -0.567,-2.867 -2.209,-34.511 -2.369,-39.525 -0.217,-6.831 -0.651,-13.149 -0.956,-20.025 -0.144,-3.227 -0.434,-6.663 -0.608,-9.806 -0.722,-13.049 0.846,-12.891 -7.932,-12.871l-31.364 0.001c-24.026,0 -22.154,-2.381 -23.983,7.319l-14.963 78.705c-1.136,6.084 -2.448,11.858 -3.378,17.827 -1.182,7.586 -9.922,48.101 -9.238,52.853 2.637,1.928 4.504,1.068 8.033,1.006 3.131,-0.056 6.285,-0.016 9.419,-0.044 20.103,-0.188 21.238,2.223 22.805,-6.299 0.463,-2.523 0.998,-5.489 1.532,-7.924 1.13,-5.153 2.269,-10.457 3.284,-15.925 1.643,-8.844 5.265,-23.862 6.479,-31.934 0.491,-3.264 5.981,-30.164 6.688,-31.353 0.846,9.959 0.989,20.421 1.665,30.55 0.668,10.003 1.007,20.083 1.503,30.253l1.59 30.146c0.805,2.361 2.876,2.279 5.809,2.253l23.511 0.1z"/>
   <path class="fil2" d="M49.322 245.899c0.768,-1.705 4.634,-20.198 5.44,-23.793l4.011 -17.958c0.334,-2.188 0.699,-3.95 2.842,-4.487 4.239,-1.063 48.672,0.486 59.13,-0.229 -0.052,-2.968 -2.665,-7.046 -3.835,-9.584l-4.061 -9.314c-1.847,-3.966 -6.58,-16.325 -8.235,-18.384l-40.122 13.258c-4.686,1.571 -38.091,12.42 -39.492,13.432 1.304,9.825 12.641,34.213 17.432,43.693 1.184,2.344 6.811,11.683 6.89,13.366z"/>
   <path class="fil2" d="M152.906 353.373c1.917,2.816 27.334,17.022 32.602,19.951 27.128,15.085 63.483,29.097 93.936,37.448 5.798,1.59 14.743,4.526 20.783,5.244 1.201,-0.61 1.478,0.256 0.172,-1.078l-9.582 -5.803c-0.516,-0.324 -0.054,-0.059 -0.689,-0.491l-10.927 -7.883c-1.577,-0.977 -1.316,-0.671 -2.789,-1.901l-3.386 -2.525c-2.215,-1.496 -4.668,-3.13 -6.517,-5.203 -0.203,-0.227 -0.313,-0.35 -0.575,-0.653 -1.124,-1.299 0.016,-0.42 -1.169,-1.084 -1.067,-0.598 -0.376,0.143 -1.551,-0.864 -0.857,-0.735 -1.553,-1.469 -2.477,-2.212l-9.254 -7.989c-0.442,-0.38 -0.418,-0.37 -0.641,-0.617 -1.545,-1.712 -1.845,-1.468 -3.725,-3.267 -0.764,-0.731 -0.435,-0.46 -1.217,-1.131l-12.158 -11.375c-2.833,-2.488 -4.755,-4.928 -6.934,-7.187 -0.719,-0.746 -1.486,-1.369 -2.358,-2.332 -0.831,-0.919 -3.358,-3.979 -4.713,-4.106 -2.14,0.942 -4.095,2.238 -6.765,3.421 -7.387,3.274 -15.903,4.599 -24.505,4.655 -12.427,0.08 -24.082,-1.28 -35.561,-3.018z"/>
   <path class="fil3" d="M92.406 235.09c2.927,-0.066 19.854,0.191 21.736,0.713 6.463,1.793 4.352,9.919 1.168,15.148 -2.799,4.597 -5.93,9.258 -11.041,11.291 -2.736,1.088 -6.087,1.539 -9.527,1.396 -4.912,-0.204 -3.81,-2.064 -8.726,-0.703l6.39 -27.845zm-29.233 114.854l-34.349 0.583 33.337 -147.993c20.814,-0.633 42.612,-0.058 63.577,-0.05 9.264,0.003 16.479,-0.142 24.487,7.341 5.366,5.014 7.729,14.846 7.267,24.893 -0.695,15.132 -9.033,33.433 -19.605,43.901 -5.772,5.716 -11.422,9.405 -19.424,12.322 -7.822,2.85 -16.065,3.543 -24.402,3.15 -1.152,-0.054 -2.71,-0.018 -3.615,-0.671l-1.864 -28.096c4.601,0.746 5.178,1.663 10.852,1.07 3.482,-0.363 6.853,-1.443 9.31,-3.211 4.251,-3.059 8.229,-8.357 10.921,-14.176 1.363,-2.945 2.348,-6.808 1.25,-10.252 -2.503,-7.854 -12.216,-6.128 -18.7,-6.404 -4.048,-0.172 -8.135,-0.311 -12.194,-0.421l-26.848 118.014zm-13.851 -104.045c-1.438,8.418 -3.885,17.411 -5.765,25.822 -1.915,8.571 -3.779,16.762 -5.69,25.275 -3.783,16.853 -7.4,34.052 -11.478,50.849 -1.724,7.1 2.969,5.618 8.784,5.555 5.108,-0.056 10.197,-0.151 15.289,-0.216 2.943,-0.038 13.249,0.351 14.753,-1.001 1.246,-1.121 10.386,-43.923 11.922,-50.424 0.864,-3.653 2.377,-9.017 2.782,-12.601l5.559 -23.766 1.591 23.571c0.447,6.877 -1.585,9.502 17.118,7.862 5.655,-0.497 9.711,-1.299 14.547,-2.848 12.527,-4.013 21.707,-12.406 28.736,-22.235 2.212,-3.094 4.139,-7.61 6.151,-11.205 6.805,-14.191 9.127,-27.708 4.127,-44.492 -1.789,-6.003 -8.268,-11.37 -13.418,-13.672 -8.638,-3.859 -12.776,-2.689 -23.585,-2.941 -10.458,0.715 -54.891,-0.834 -59.13,0.229 -2.143,0.537 -2.508,2.299 -2.842,4.487l-4.011 17.958c-0.806,3.595 -4.672,22.088 -5.44,23.793z"/>
   <path class="fil3" d="M257.057 235.771c-12.251,-5.13 -33.293,-12.698 -43.409,1.389 -7.163,9.975 0.322,15.683 3.547,19.791 3.572,4.551 9.075,10.082 13.398,16.01 4.992,6.847 10.927,15.057 12.64,26.189 2.089,13.568 -3.999,23.803 -10.195,32.279l-9.139 10.059c-3.596,2.599 -4.135,3.528 -8.831,6.071 -9.065,4.909 -21.079,6.347 -32.886,5.895 -6.436,-0.246 -30.097,-2.256 -34.598,-4.263l5.879 -34.814c0.8,0.186 9.667,3.751 14.204,5.045 9.176,2.618 24.102,5.047 31.771,-1.213 13.233,-10.8 2.486,-19.7 -5.602,-29.673 -1.611,-1.986 -2.746,-3.362 -4.41,-5.384 -13.062,-15.873 -22.45,-34.907 -12.018,-55.576 9.603,-19.03 26.621,-28.32 48.304,-28.582 8.023,-0.097 28.877,1.007 35.144,3.702l-3.799 33.075zm-63.03 82.386c-6.99,1.575 -14.64,0.977 -21.541,-0.482 -9.297,-1.966 -11.025,-3.711 -17.743,-6.101 -4.217,-1.5 -4.251,3.272 -4.808,6.108 -0.681,3.469 -1.213,6.913 -1.814,10.4 -0.466,2.703 -3.034,19.232 -3.615,20.152 0.046,2.746 0.44,3.483 2.817,4.064 1.854,0.453 3.885,0.69 5.583,1.075 11.479,1.738 23.134,3.098 35.561,3.018 8.602,-0.056 17.118,-1.381 24.505,-4.655 2.67,-1.183 4.625,-2.479 6.765,-3.421 4.213,-1.805 13.701,-12.048 16.406,-16.149 5.485,-8.317 8.36,-11.774 10.128,-23.139 2.932,-18.839 -11.647,-36.206 -19.885,-45.968 -1.304,-1.546 -2.565,-3.04 -3.787,-4.458 -4.235,-4.913 -10.191,-9.479 -8.54,-15.929 0.61,-2.383 1.714,-3.349 3.121,-5.122 4.853,-6.12 12.301,-5.308 19.507,-4.923 8.69,0.466 14.501,4.651 18.998,5.824 3.507,0.913 4.125,-1.049 4.585,-3.715l3.438 -29.873c0.579,-5.257 -2.384,-5.838 -9.652,-6.87 -16.706,-2.375 -43.567,-3.963 -57.634,5.071 -9.698,6.226 -19.271,15.084 -23.195,26.604 -8.775,25.76 2.425,41.225 17.043,59.293l6.691 7.84c0.481,0.607 0.555,0.646 1.026,1.302 4.803,6.692 6.988,10.822 1.104,16.62 -1.667,1.643 -3.517,2.3 -5.064,3.434z"/>
   <path class="fil1" d="M351.937 355.438c-0.657,2.312 -5.351,9.945 -6.718,12.107 -8.313,13.155 -13.361,20.53 -23.199,32.033 2.156,-1.339 7.15,-6.869 9.288,-9.089 9.633,-9.998 16.849,-18.749 25.822,-29.456 3.645,-4.352 29.043,-36.95 31.55,-42.352l0.091 1.038c0.643,-0.897 6.904,-37.39 8.04,-43.688l1.99 -11.038c0.104,-0.572 0.312,-1.42 0.37,-1.945l-0.177 -1.777 -21.544 49.126c-3.857,8.17 -7.044,16.221 -10.821,24.47 -1.835,4.007 -3.544,8.219 -5.378,12.26 -4.604,10.148 -2.428,7.43 -9.314,8.311z"/>
   <path class="fil2" d="M86.016 262.935c4.916,-1.361 3.814,0.499 8.726,0.703 3.44,0.143 6.791,-0.308 9.527,-1.396 5.111,-2.033 8.242,-6.694 11.041,-11.291 3.184,-5.229 5.295,-13.355 -1.168,-15.148 -1.882,-0.522 -18.809,-0.779 -21.736,-0.713l-6.39 27.845z"/>
  </g>
 </g>
</svg>
