<?xml version="1.0" encoding="UTF-8"?>
<!DOCTYPE svg PUBLIC "-//W3C//DTD SVG 1.1//EN" "http://www.w3.org/Graphics/SVG/1.1/DTD/svg11.dtd">
<!-- Creator: CorelDRAW 2021 (64-Bit) -->
<svg xmlns="http://www.w3.org/2000/svg" xml:space="preserve" width="500px" height="500px" version="1.1" style="shape-rendering:geometricPrecision; text-rendering:geometricPrecision; image-rendering:optimizeQuality; fill-rule:evenodd; clip-rule:evenodd"
viewBox="0 0 500 500"
 xmlns:xlink="http://www.w3.org/1999/xlink"
 xmlns:xodm="http://www.corel.com/coreldraw/odm/2003">
 <defs>
  <style type="text/css">
   <![CDATA[
    .fil0 {fill:#ADADAD}
   ]]>
  </style>
 </defs>
 <g id="Capa_x0020_1">
  <metadata id="CorelCorpID_0Corel-Layer"/>
  <g id="_2447551612048">
   <path class="fil0" d="M307.226 401.757c27.19,-7.887 32.958,30.683 10.125,37.067 -25.833,7.223 -35.402,-29.735 -10.125,-37.067zm50.661 29.292l-0.189 -56.988c-4.02,0 -106.307,0.953 -107.125,-0.795 -0.208,-0.447 -0.72,-0.334 -1.079,-0.504l-0.277 -14.695c46.11,0 92.22,-0.007 138.33,0.013 26.705,0.013 37.497,0.17 55.335,-13.23 37.08,-27.853 41.826,-112.838 21.931,-158.925 -22.223,-51.477 -48.62,-46.345 -90.944,-46.345 0.69,31.658 1.274,66.755 -13.315,90.759 -26.625,43.807 -133.713,18.058 -179.116,28.629 -29.906,6.962 -40.166,27.835 -40.164,62.747 0,22.307 -2.879,85.873 0.781,103.499 5.123,24.669 32.707,37.995 59.506,44.363 28.957,6.881 64.116,7.018 93.836,1.517 24.254,-4.49 62.911,-17.494 62.49,-40.045z"/>
   <path class="fil0" d="M206.316 87.574c-9.701,21.55 -47.907,10.242 -35.547,-16.332 9.784,-21.037 47.152,-9.448 35.547,16.332zm-118.701 272.051l38.809 0.139c-0.699,-11.823 -4.239,-38.783 0.939,-47.861 -1.035,-14.095 3.642,-32.052 9.721,-43.041 19.133,-34.591 87.228,-26.017 131.929,-26.008 40.73,0.009 61.516,0.57 80.317,-25.215 14.84,-20.351 9.928,-64.724 9.939,-93.48 0.011,-34.146 6.929,-61.718 -24.804,-80.056 -44.551,-25.746 -129.512,-24.996 -172.457,-0.597 -11.42,6.488 -20.135,14.646 -20.3,32.305 -0.127,13.637 -1.269,38.227 0.552,50.706l109.089 0.219 0.01 15.037c-41.419,1.848 -86.828,0.176 -128.685,0.163 -39.399,-0.011 -65.117,-1.776 -85.67,41.475 -14.427,30.362 -16.991,73.397 -8.726,108.198 7.271,30.615 27.156,68.623 59.337,68.016z"/>
   <path class="fil0" d="M357.887 431.049c3.495,-5.487 1.36,-19.739 1.39,-27.383l-0.389 -29.89c-8.446,-2.775 -93.323,-1.059 -109.394,-1.014 0.359,0.17 0.871,0.057 1.079,0.504 0.818,1.748 103.105,0.795 107.125,0.795l0.189 56.988z"/>
   <path class="fil0" d="M87.615 359.625c6.809,3.496 29.845,1.982 38.989,1.121 0.834,-2.576 1.075,-43.652 0.759,-48.843 -5.178,9.078 -1.638,36.038 -0.939,47.861l-38.809 -0.139z"/>
  </g>
 </g>
</svg>
