<?xml version="1.0" encoding="UTF-8"?>
<!DOCTYPE svg PUBLIC "-//W3C//DTD SVG 1.1//EN" "http://www.w3.org/Graphics/SVG/1.1/DTD/svg11.dtd">
<!-- Creator: CorelDRAW 2021 (64-Bit) -->
<svg xmlns="http://www.w3.org/2000/svg" xml:space="preserve" width="500px" height="500px" version="1.1" style="shape-rendering:geometricPrecision; text-rendering:geometricPrecision; image-rendering:optimizeQuality; fill-rule:evenodd; clip-rule:evenodd"
viewBox="0 0 500 500"
 xmlns:xlink="http://www.w3.org/1999/xlink"
 xmlns:xodm="http://www.corel.com/coreldraw/odm/2003">
 <defs>
  <style type="text/css">
   <![CDATA[
    .fil0 {fill:#ADADAD}
   ]]>
  </style>
 </defs>
 <g id="Capa_x0020_1">
  <metadata id="CorelCorpID_0Corel-Layer"/>
  <g id="_2447619943792">
   <path class="fil0" d="M265.525 403.9l15.106 -17.293c5.001,-6.176 9.604,-11.644 14.495,-18.131 0.824,-1.091 1.565,-2.005 2.349,-3.051l6.975 -9.45c0.775,-1.026 1.505,-2.089 2.252,-3.148 1.516,-2.151 1.055,-2.089 3.163,-2.237 7.797,-0.545 21.59,-2.319 29.14,-3.485l18.515 -3.085c1.27,-0.211 16.922,-3.263 18.03,-3.795 2.872,12.326 6.35,27.788 7.406,40.52 1.12,13.503 1.745,27.292 -0.936,40.65 -1.167,5.811 -2.656,10.653 -5.045,15.43 -1.058,2.116 -2.362,4.477 -3.846,6.279 -4.896,5.943 -11.583,10.296 -20.529,10.296 -7.045,0 -10.841,-0.378 -17.523,-2.501 -8.612,-2.736 -15.005,-5.78 -22.966,-10.335 -6.401,-3.663 -13.961,-8.986 -19.875,-13.425 -1.646,-1.235 -3.108,-2.374 -4.69,-3.634l-22.021 -19.605zm93.15 71.1l-13.873 0c-6.366,-0.186 -10.484,-1.053 -20.807,-4.47 -5.496,-1.818 -10.838,-4.454 -15.945,-7.005 -2,-0.999 -4.013,-2.083 -5.979,-3.246 -14.162,-8.376 -25.08,-16.706 -37.605,-27.195l-13.287 -12.138c-0.496,-0.466 -0.624,-0.699 -1.179,-1.071 -1.426,0.955 -3.674,3.337 -4.89,4.56 -0.572,0.574 -0.756,0.64 -1.344,1.131l-7.199 6.526c-0.473,0.397 -0.685,0.712 -1.158,1.092l-10.107 8.343c-5.121,4.189 -10.46,8.013 -15.982,11.693 -7.516,5.01 -15.383,9.796 -23.734,13.391 -7.31,3.146 -20.634,8.389 -28.511,8.389l-15.75 0c-1.726,0 -5.061,-0.821 -6.605,-1.27 -2.093,-0.608 -3.834,-1.126 -5.693,-1.957 -8.681,-3.88 -15.788,-9.555 -21.227,-17.248 -3.311,-4.684 -5.798,-9.831 -7.843,-15.332 -1.423,-3.827 -2.384,-7.781 -3.364,-11.936 -1.048,-4.443 -2.552,-15.14 -2.521,-20.429 0.026,-4.648 -0.265,-6.945 0.004,-11.927 0.079,-1.455 -0.081,-3.046 -0.002,-4.502l0.676 -8.549c0.09,-2.901 0.626,-5.646 0.879,-8.346 0.255,-2.718 0.685,-5.578 1.113,-8.112 1.327,-7.843 2.695,-15.527 4.488,-23.187 0.491,-2.095 1.01,-5.64 1.845,-7.38 -0.865,-0.072 -1.652,-0.448 -2.475,-0.676 -5.34,-1.481 -10.508,-3.246 -15.721,-4.978 -5.886,-1.954 -11.619,-4.198 -17.159,-6.466 -1.49,-0.61 -2.889,-1.229 -4.278,-1.797 -3.434,-1.408 -6.585,-3.261 -9.96,-4.665l-5.985 -3.015c-8.89,-4.628 -17.017,-10.37 -24.878,-16.522 -4.566,-3.573 -11.399,-10.795 -14.493,-15.207 -7.631,-10.88 -11.026,-19.355 -11.026,-33.299 0,-11.104 5.181,-21.823 11.311,-30.089 0.473,-0.637 0.855,-1.062 1.291,-1.634l4.114 -4.886c1.763,-2.108 4.022,-3.818 5.957,-5.743 0.973,-0.969 1.995,-1.884 3.104,-2.746 1.236,-0.962 2.106,-1.749 3.377,-2.698l10.309 -7.24c4.179,-2.797 8.733,-5.191 13.19,-7.511 13.073,-6.805 22.156,-10.006 35.287,-14.888 1.397,-0.519 3.002,-1.121 4.535,-1.54 2.987,-0.817 11.048,-3.846 13.5,-4.05 -0.35,-0.729 -0.733,-2.706 -0.99,-3.735l-2.554 -11.396c-1.85,-9.32 -4.301,-22.317 -4.785,-32.115 -0.06,-1.223 -0.336,-3.09 -0.434,-4.291 -0.059,-0.723 0.027,-1.515 -0.011,-2.239 -0.052,-0.988 -0.201,-0.94 -0.233,-2.017 -0.096,-3.183 -0.218,-5.923 -0.218,-9.007 0,-2.766 0.213,-4.798 0.217,-7.658 0.006,-4.391 0.702,-9.55 1.424,-13.877 1.368,-8.198 3.298,-16.595 6.905,-23.919 4.062,-8.245 9.589,-16.088 17.106,-21.37 1.501,-1.055 2.957,-2.056 4.651,-2.998 4.499,-2.505 11.946,-5.553 17.397,-5.553l15.525 0c6.947,0 19.016,4.334 25.554,7.071 7.403,3.1 14.225,7 21.094,11.081 9.595,5.701 18.065,12.73 26.8,19.55l19.477 17.423c1.281,-0.858 3.806,-3.47 4.89,-4.56l4.844 -4.381c3.061,-3.105 9.193,-8.063 12.47,-10.705l5.15 -4.075c9.819,-7.337 19.82,-14.493 30.846,-20.004 8.583,-4.291 17.306,-7.996 26.761,-10.139 2.328,-0.528 5.344,-1.261 7.964,-1.261l15.525 0c3.499,0 9.834,2.035 12.369,3.156 10.308,4.553 18.652,11.873 24.237,21.888 0.97,1.74 1.837,3.329 2.695,5.18 2.544,5.486 4.383,11.163 5.606,17.344 0.994,5.027 2.596,15.008 2.573,20.602 -0.011,2.789 0.22,4.712 0.22,7.43l-0.233 4.493c-0.043,1.468 0.088,3.054 0.009,4.508 -0.146,2.698 -0.56,5.884 -0.674,8.551 -0.118,2.733 -0.587,5.752 -0.883,8.342 -0.314,2.749 -0.676,5.541 -1.111,8.114 -0.506,2.987 -4.822,27.418 -6.333,30.567 1.971,0.164 7.147,2.027 9.253,2.672 2.842,0.869 6.191,1.844 8.972,2.953 1.442,0.575 3.058,1 4.5,1.575 1.393,0.556 2.887,1.02 4.277,1.573 8.318,3.307 16.655,6.691 24.602,10.723 0.833,0.424 1.171,0.708 2.018,1.132 4.431,2.213 8.92,4.697 13.024,7.451 2.997,2.011 6.137,3.872 8.903,6.172 0.573,0.476 1.069,0.827 1.659,1.266 3.031,2.261 9.984,8.193 12.342,11.283l2.093 2.408c2.972,3.513 5.617,7.201 7.879,11.245 0.714,1.275 1.332,2.627 1.957,3.893 3.318,6.728 4.496,14.13 4.496,21.829 0,12.666 -6.045,24.511 -13.794,33.68 -1.914,2.265 -3.644,4.121 -5.725,6.201l-3.042 2.808c-4.996,4.826 -10.886,9.026 -16.77,12.705l-23.296 12.479c-2.738,1.324 -5.28,2.341 -8.153,3.547 -5.674,2.384 -11.183,4.383 -17.135,6.49l-8.979 2.946c-2.344,0.69 -6.863,2.434 -9.081,2.619 0.94,1.958 3.116,12.977 3.544,15.131 2.507,12.631 4.56,25.612 5.231,38.645 0.05,0.988 0.2,0.939 0.232,2.017 0.046,1.506 -0.117,3.249 0.005,4.72 0.628,7.592 -0.116,18.081 -1.426,25.823 -1.016,6.014 -2.583,12.837 -4.627,18.323 -5.486,14.733 -14.577,26.012 -29.062,32.363 -3.205,1.405 -8.767,3.153 -12.147,3.153zm-207.675 -21.6c-7.543,0 -13.034,-0.693 -18.807,-5.043 -4.055,-3.056 -6.863,-6.92 -9.093,-11.382 -4.828,-9.657 -6.975,-22.754 -6.975,-33.75 0,-9.569 0.112,-12.748 0.919,-22.48 1.094,-13.189 4.512,-28.096 7.406,-40.52 0.735,0.353 3.266,0.815 4.369,1.031 11.754,2.3 19.746,3.89 32.211,5.814 6.384,0.986 12.533,1.61 19.091,2.509 1.615,0.221 3.373,0.439 4.862,0.538 1.706,0.114 3.254,0.401 4.942,0.458 0.895,0.03 1.632,0.039 2.158,0.542l3.467 4.858c6.892,9.121 11.119,15.13 18.848,24.577 0.437,0.534 0.792,0.971 1.206,1.494l8.651 10.249c1.942,2.496 4.196,4.843 6.341,7.158l3.879 4.447 -8.42 8.005c-0.924,0.713 -1.308,1.279 -2.121,1.929l-8.984 7.666c-0.784,0.686 -1.54,1.232 -2.371,1.904 -15.44,12.502 -42.316,29.996 -61.579,29.996zm69.75 -100.575c4.851,0 9.583,0.451 14.4,0.45 5.222,-0.001 9.668,0.225 14.85,0.225 5.114,0 9.481,-0.225 14.625,-0.225 4.915,0 9.693,-0.45 14.625,-0.45 -2.187,3.266 -14.369,18.258 -17.825,22.225l-11.425 12.875 -15.023 -17.151c-1.227,-1.507 -2.342,-2.776 -3.555,-4.321 -2.504,-3.189 -8.754,-10.764 -10.672,-13.628zm103.725 -26.1l11.238 -18.462c3.834,-6.408 10.786,-18.501 14.334,-25.492l3.453 -6.671c1.08,0.791 8.088,19.977 8.485,20.991 1.429,3.65 6.842,19.201 7.49,21.984l-10.856 2.194c-7.175,1.435 -15.198,2.863 -22.456,3.869l-11.688 1.587zm-177.975 -50.625c0.192,0.824 0.399,1.001 0.804,1.671 0.362,0.596 0.531,0.996 0.846,1.629 0.309,0.62 0.536,1.103 0.822,1.653l24.617 42.433c0.455,0.678 1.764,2.595 1.936,3.239 -0.888,0 -1.868,-0.215 -2.798,-0.352 -6.023,-0.89 -14.339,-1.874 -20.133,-3.042 -3.643,-0.734 -7.366,-1.292 -11.025,-2.025l-11.044 -2.231c0.452,-1.939 1.085,-3.596 1.715,-5.485 3.269,-9.804 8.827,-25.657 12.987,-34.938 0.457,-1.02 0.699,-2.132 1.273,-2.552zm11.7 -26.1c0,-0.992 5.268,-10.784 6.378,-12.971 0.502,-0.99 0.852,-1.714 1.347,-2.704l6.826 -12.749c7.223,-13.455 14.045,-24.38 21.943,-37.007l6.211 -9.539c0.549,-0.823 0.968,-1.448 1.53,-2.295 0.601,-0.909 1.102,-1.544 1.665,-2.385 4.604,0 9.588,-0.654 14.174,-0.901 0.801,-0.043 1.677,0.032 2.483,0.008 1.133,-0.034 1.246,-0.226 2.459,-0.241 6.682,-0.083 12.948,-0.441 19.809,-0.441l29.189 0.286c1.553,0.214 3.211,0.065 5.012,0.163 1.001,0.054 1.08,0.221 2.24,0.235 0.859,0.01 1.856,-0.067 2.697,0.003 1.252,0.104 3.492,0.141 4.832,0.343 0.889,0.134 1.495,0.051 2.381,0.094 1.023,0.052 1.223,0.236 2.469,0.231 1.343,-0.006 3.793,-0.015 4.461,0.714 0.271,0.297 0.727,1.091 0.989,1.486 0.391,0.589 0.714,1.071 1.08,1.62 6.784,10.175 11.738,18.129 18.097,28.703 1.355,2.252 2.478,4.252 3.824,6.526l6.507 11.493c0.373,0.742 0.539,1.059 0.952,1.748l4.444 8.381c0.377,0.701 0.603,0.97 0.979,1.721 0.621,1.243 1.101,2.211 1.722,3.453 1.187,2.374 2.354,4.482 3.525,6.825 0.391,0.782 3.375,6.781 3.375,7.2 0,1.075 -5.255,10.71 -6.376,12.974l-9.6 18.075c-4.543,8.796 -11.993,20.654 -17.454,29.571 -3.988,6.512 -8.242,12.717 -12.47,19.03 -2.586,0 -5.62,0.448 -6.967,0.458 -1.151,0.007 -1.712,0.042 -2.544,0.156l-4.88 0.295c-0.819,0.01 -1.677,-0.041 -2.491,-0.016 -1.133,0.034 -1.246,0.226 -2.459,0.241 -6.733,0.083 -13.102,0.441 -20.034,0.441l-13.05 0c-6.932,0 -13.301,-0.358 -20.034,-0.441l-6.965 -0.46c-0.887,-0.047 -1.786,0.067 -2.668,-0.032l-9.708 -0.642 -12.386 -18.889c-0.444,-0.743 -0.945,-1.549 -1.473,-2.352l-4.52 -7.405c-6.936,-11.628 -16.306,-28.003 -22.422,-40.353 -0.606,-1.225 -5.099,-10.127 -5.099,-10.651zm232.65 -63.45c1.358,0.03 5.674,1.545 7.425,2.025 15.719,4.307 40.711,14.985 53.418,23.307 2.024,1.326 3.849,2.58 5.756,3.919 0.893,0.628 1.834,1.355 2.704,2.022 0.86,0.657 1.754,1.358 2.627,2.097 5.776,4.881 9.683,8.956 13.617,15.183 9.393,14.872 2.649,29.189 -8.428,40.266 -6.774,6.774 -16.47,13.273 -25.218,17.982l-3.073 1.652c-1.033,0.537 -2.108,1.049 -3.153,1.572 -1.106,0.553 -2.269,1.025 -3.378,1.571 -2.154,1.061 -4.287,1.929 -6.518,2.933l-20.844 7.956c-1.53,0.51 -13.435,4.381 -14.935,4.415 -0.113,-1.358 -4.984,-15.288 -5.371,-16.454 -3.318,-9.996 -11.466,-30.352 -15.703,-39.422 -0.429,-0.917 -3.349,-7.367 -3.349,-7.574l6.614 -15.109c4.261,-10.604 8.72,-20.666 12.381,-31.719 0.927,-2.801 1.854,-5.334 2.813,-8.212 0.496,-1.487 2.527,-7.343 2.615,-8.41zm-281.7 126.9c-1.266,-0.028 -2.596,-0.621 -3.776,-0.949 -10.188,-2.838 -29.269,-9.661 -38.374,-14.276 -2.234,-1.132 -4.36,-1.942 -6.522,-3.153 -10.653,-5.963 -19.59,-10.846 -28.447,-19.703 -14.838,-14.838 -17.55,-29.796 -4.504,-45.792 3.217,-3.946 8.085,-8.585 12.194,-11.656 2.737,-2.044 5.561,-4.202 8.464,-5.935 6.1,-3.643 9.151,-5.482 15.29,-8.561l23.591 -9.934 14.482 -4.868c1.314,-0.364 2.299,-0.694 3.649,-1.076 1.223,-0.346 2.7,-0.969 3.953,-0.997l1.207 4.193c2.613,8.001 5.584,16.511 8.564,24.286 0.554,1.447 1.051,2.619 1.563,4.062 0.984,2.77 2.091,5.17 3.164,7.861 1.091,2.738 2.061,5.14 3.214,7.811 1.133,2.626 2.156,5.082 3.362,7.663 0.429,0.917 3.349,7.367 3.349,7.574 0,0.22 -1.344,3.118 -1.624,3.674 -2.523,5.001 -5.881,13.913 -8.251,19.199 -4.103,9.152 -10.006,26.446 -13.283,36.217l-1.265 4.36zm215.325 -140.175c1.603,0 4.09,0.498 5.781,0.744 1.792,0.26 3.848,0.561 5.706,0.819 11.282,1.562 19.896,3.43 30.682,5.542 1.029,0.202 1.87,0.524 2.831,0.545 -0.525,2.253 -2.731,8.524 -3.571,11.054 -2.122,6.391 -5.496,15.33 -7.904,21.346 -0.714,1.785 -1.378,3.441 -2.121,5.304l-2.347 5.015c-0.202,-0.31 -0.095,-0.137 -0.258,-0.418l-17.395 -31.205c-0.663,-1.112 -1.201,-1.97 -1.859,-3.091l-9.545 -15.655zm-178.2 50.625l-13.979 -37.321c-0.601,-1.805 -1.312,-3.685 -1.771,-5.654l10.856 -2.194c9.358,-1.873 18.703,-3.358 28.164,-4.686l5.98 -0.77 -18.6 31.125c-0.606,1.136 -1.088,2.105 -1.745,3.205l-6.208 11.342c-0.501,0.962 -2.021,4.176 -2.697,4.953zm74.475 -76.725l14.225 -17.95c2.093,-2.4 4.147,-5.1 6.421,-7.529l2.809 -3.266c0.771,-0.776 1.114,-1.353 1.914,-2.136 0.795,-0.775 1.117,-1.363 1.912,-2.139 1.09,-1.066 1.161,-1.539 1.969,-2.08 0.471,0.315 0.515,0.484 0.87,0.93l10.45 11.825c3.466,4.126 7.674,8.987 10.856,13.219 1.955,2.599 5.394,6.617 7.074,9.126 -4.872,0 -9.546,-0.45 -14.4,-0.45 -5.215,0 -9.656,-0.225 -14.85,-0.225 -5.126,0 -9.489,0.225 -14.625,0.225 -4.951,0 -9.674,0.45 -14.625,0.45zm44.775 -51.075c0.639,-0.954 2.799,-2.686 4.106,-3.994 6.53,-6.534 22.569,-19.703 29.597,-24.403 8.526,-5.703 16.878,-11.145 26.465,-15.16 6.671,-2.793 15.992,-5.943 23.307,-5.943l4.05 0c5.56,0 11.897,2.72 15.008,5.242 3.482,2.825 4.862,4.604 7.176,8.124 6.057,9.212 8.641,25.769 8.641,37.259 0,9.387 -0.292,12.641 -0.908,21.817 -0.601,8.964 -4.37,28.405 -6.608,37.267 -0.249,0.986 -0.465,2.525 -0.809,3.241 -1.292,0 -3.43,-0.594 -4.545,-0.855 -13.19,-3.096 -48.73,-8.719 -60.925,-9.275 -2.882,-0.131 -1.923,-0.49 -5.63,-5.395l-11.574 -15.426c-0.836,-1.112 -1.589,-1.989 -2.378,-3.022 -0.798,-1.043 -1.523,-1.939 -2.376,-3.025l-7.393 -9.031c-2.936,-3.736 -7.233,-8.141 -9.995,-11.605l-3.893 -4.207c-0.447,-0.56 -0.978,-1.105 -1.316,-1.609zm-141.075 63.675c-1.257,-5.397 -3.371,-13.843 -4.275,-19.35 -1.303,-7.941 -2.208,-12.302 -3.112,-20.963 -1.838,-17.601 -1.878,-40.609 5.962,-56.287 0.618,-1.236 1.001,-2.084 1.741,-3.209 0.745,-1.133 1.271,-2.057 2.105,-3.07 4.937,-5.993 11.842,-10.296 20.079,-10.296 11.071,0 14.359,1.166 24.161,4.639 8.766,3.107 16.531,8.207 24.428,12.921 4.225,2.522 20.109,14.521 23.693,17.933l9.897 8.778c0.426,0.373 0.718,0.713 1.127,1.123 0.69,0.691 1.287,1.386 2.064,1.986 0.862,0.666 1.587,1.272 2.155,2.12 -0.837,1.249 -4.114,4.502 -5.109,5.691l-2.487 2.913c-0.852,0.958 -1.78,1.894 -2.529,2.871 -0.733,0.957 -1.701,1.896 -2.506,2.894 -6.701,8.296 -12.637,15.187 -19.319,24.106l-9.803 13.372c-0.104,0.149 -0.525,0.809 -0.532,0.818 -0.407,0.459 -0.437,0.544 -2.053,0.647 -3.318,0.211 -6.536,0.562 -9.821,0.979 -6.394,0.812 -12.888,1.511 -19.321,2.504 -6.358,0.981 -12.359,1.931 -18.487,3.113l-13.5 2.7c-1.104,0.219 -3.65,0.631 -4.558,1.067z"/>
   <path class="fil0" d="M248.425 205c-0.387,0.093 -2.103,-0.035 -2.689,0.011 -7.664,0.601 -16.276,4.009 -22.45,8.6 -4.469,3.324 -7.964,7.095 -11.042,11.683 -1.528,2.279 -2.797,4.627 -3.937,7.313 -2.075,4.889 -4.147,14.141 -3.402,19.063 0.142,0.941 0.036,1.664 0.106,2.594 0.578,7.617 4.028,16.301 8.6,22.45 6.534,8.785 16.798,15.708 27.641,17.584 11.538,1.997 21.907,0.385 32.078,-5.668 1.184,-0.705 2.3,-1.435 3.384,-2.241 2.378,-1.769 4.013,-3.346 6.081,-5.394 3.399,-3.37 7.087,-9.221 8.864,-13.636 1.023,-2.538 2.114,-5.573 2.639,-8.611 0.872,-5.036 1.159,-10.502 0.32,-15.566 -0.302,-1.818 -0.576,-3.075 -0.967,-4.658 -0.722,-2.915 -1.815,-5.675 -2.999,-8.251 -4.382,-9.527 -13.528,-17.836 -23.259,-21.966 -2.673,-1.134 -5.808,-2.028 -8.632,-2.618 -3.866,-0.808 -4.694,-0.537 -7.669,-0.882l-2.667 0.193z"/>
  </g>
 </g>
</svg>
