<?xml version="1.0" encoding="UTF-8"?>
<!DOCTYPE svg PUBLIC "-//W3C//DTD SVG 1.1//EN" "http://www.w3.org/Graphics/SVG/1.1/DTD/svg11.dtd">
<!-- Creator: CorelDRAW 2021 (64-Bit) -->
<svg xmlns="http://www.w3.org/2000/svg" xml:space="preserve" width="500px" height="500px" version="1.1" style="shape-rendering:geometricPrecision; text-rendering:geometricPrecision; image-rendering:optimizeQuality; fill-rule:evenodd; clip-rule:evenodd"
viewBox="0 0 500 500"
 xmlns:xlink="http://www.w3.org/1999/xlink"
 xmlns:xodm="http://www.corel.com/coreldraw/odm/2003">
 <defs>
  <style type="text/css">
   <![CDATA[
    .fil0 {fill:#adadad}
   ]]>
  </style>
 </defs>
 <g id="Capa_x0020_1">
  <metadata id="CorelCorpID_0Corel-Layer"/>
  <g id="_2447408163040">
   <path class="fil0" d="M249.783 43.664l0.434 0c0.173,2.08 1.532,4.7 2.2,6.705l3.476 9.991c2.587,7.809 5.614,15.727 8.201,23.512 1.495,4.505 3.156,8.801 4.671,13.356 1.512,4.545 3.205,8.935 4.67,13.358 2.581,7.788 5.584,15.583 8.148,23.346 2.595,7.856 5.529,15.513 8.148,23.347 1.665,4.983 1.528,6.503 5.167,8.3l38.523 20.128c2.077,1.03 3.906,2.059 6.012,3.111l14.7 7.675c1.068,0.53 2.013,0.948 3.039,1.523l17.369 9.132c0.415,0.264 0.153,0.084 0.375,0.276 -1.539,0.359 -9.68,4.927 -11.806,6.006 -6.959,3.531 -13.645,7.374 -20.636,10.863l-14.848 7.744c-1.049,0.524 -1.723,0.975 -2.821,1.523l-29.66 15.522c-2.657,1.606 -2.849,2.057 -3.839,5.067 -0.394,1.196 -0.763,2.098 -1.195,3.366 -2.258,6.643 -4.908,13.191 -7.115,19.819l-4.782 13.246c-1.591,4.401 -3.133,8.902 -4.724,13.304 -0.789,2.181 -1.601,4.425 -2.386,6.519 -0.431,1.149 -0.794,2.193 -1.201,3.359l-11.838 33.124c-0.401,1.117 -0.753,2.188 -1.205,3.357l-5.962 16.627c-0.348,1.058 -1.023,2.33 -1.115,3.445l-0.435 0c-0.509,-2.186 -1.524,-4.455 -2.254,-6.65l-5.813 -16.559c-4.779,-14.433 -10.202,-28.73 -15.099,-43.112l-6.947 -19.986c-1.19,-3.402 -10.926,-31.938 -11.872,-33.09 -1.247,-1.522 -6.274,-3.875 -8.488,-4.979 -5.945,-2.962 -11.606,-6.238 -17.525,-9.195l-14.848 -7.742c-1.036,-0.526 -1.727,-0.978 -2.821,-1.524l-14.845 -7.746c-1.101,-0.546 -1.731,-0.981 -2.823,-1.521 -3.081,-1.526 -19.346,-10.418 -20.929,-10.787 1.121,-0.974 16.347,-8.723 18.972,-10.136l25.276 -13.173c9.933,-4.961 19.513,-10.558 29.47,-15.495 2.088,-1.036 7.703,-3.594 8.616,-5.069 1.356,-2.189 12.058,-34.302 14.214,-39.87l7.053 -19.881c2.98,-8.917 6.438,-17.722 9.396,-26.659 0.738,-2.231 1.574,-4.486 2.387,-6.735l3.481 -9.987c0.754,-2.013 5.721,-15.401 5.834,-16.755zm-0.435 345.33c1.354,0 2.859,-0.752 3.514,-1.482 1.365,-1.524 3.483,-8.499 4.225,-10.763 0.818,-2.499 1.782,-4.998 2.658,-7.334 0.458,-1.221 0.929,-2.545 1.309,-3.686l17.252 -48.127c1.926,-4.864 3.515,-10.008 5.335,-14.863 0.935,-2.493 1.73,-4.944 2.611,-7.381l7.984 -22.208c1.603,-4.895 3.709,-9.838 5.266,-14.716 0.507,-1.588 0.94,-1.813 2.417,-2.579l9.996 -5.211c1.148,-0.57 2.2,-1.106 3.268,-1.727 1.068,-0.621 2.188,-1.045 3.319,-1.678l29.621 -15.562c0.598,-0.299 1.065,-0.517 1.595,-0.794l14.912 -7.897c2.319,-1.177 4.344,-2.281 6.593,-3.399l6.527 -3.466c2.726,-1.584 7.355,-3.389 9.806,-5.182 2.252,-1.648 2.395,-4.907 0.457,-6.834 -1.435,-1.427 -14.157,-7.744 -16.211,-8.771l-9.993 -5.212c-0.626,-0.313 -0.969,-0.481 -1.596,-0.794l-8.252 -4.347c-2.591,-1.294 -10.838,-5.431 -13.283,-6.919 -3.016,-1.836 -11.198,-5.722 -14.743,-7.631l-14.991 -7.817c-0.683,-0.341 -0.898,-0.52 -1.522,-0.869 -0.623,-0.348 -1.085,-0.546 -1.735,-0.871 -1.237,-0.618 -2.094,-1.082 -3.261,-1.735 -3.049,-1.707 -2.455,-0.687 -3.638,-3.748l-1.989 -5.613c-2.844,-7.343 -4.941,-15.06 -7.787,-22.404 -2.371,-6.121 -4.389,-12.478 -6.504,-18.691 -2.976,-8.738 -6.207,-17.287 -9.127,-26.06l-7.767 -22.208c-0.9,-2.488 -1.741,-5.021 -2.605,-7.603 -1.009,-3.02 -8.451,-24.709 -9.186,-25.784 -1.835,-2.681 -5.641,-2.685 -7.555,-0.126 -0.851,1.137 -8.752,24.109 -9.275,25.695 -4.131,12.511 -8.958,24.593 -13.092,37.082 -4.095,12.372 -8.927,24.518 -13.034,36.922 -3.277,9.897 -7.171,19.806 -10.481,29.702 -0.598,1.787 -0.87,1.646 -2.525,2.471 -1.151,0.574 -2.146,1.189 -3.257,1.739l-11.446 5.932c-0.725,0.362 -0.985,0.581 -1.661,0.946l-6.592 3.401c-1.227,0.608 -2.016,1.118 -3.258,1.738 -1.239,0.617 -2.095,1.082 -3.262,1.734 -1.124,0.629 -2.237,1.096 -3.331,1.665l-6.658 3.551c-1.243,0.615 -2.095,1.081 -3.263,1.734l-26.398 13.789c-2.575,1.567 -5.421,2.878 -8.144,4.238 -0.724,0.362 -0.985,0.581 -1.662,0.945 -2.9,1.561 -8.072,3.068 -8.343,6.845 -0.212,2.946 2.296,4.296 4.503,5.39 6.022,2.986 11.957,6.369 17.958,9.413 5.959,3.024 12.326,6.617 18.105,9.483l11.591 6.004c7.15,3.628 14.182,7.638 21.359,11.224l15.57 8.108c0.529,0.412 0.14,-0.215 0.513,0.791 2.794,7.544 5.173,14.869 7.803,22.388l6.522 18.456c0.463,1.361 0.784,2.398 1.291,3.705l5.17 14.813c0.854,2.567 1.723,4.849 2.609,7.381l18.249 52.126c0.899,2.571 1.616,4.937 2.554,7.437 0.882,2.351 1.783,5.244 4.965,5.244z"/>
   <path class="fil0" d="M251.504 324.528c0.652,-0.845 14.312,-39.495 15.022,-41.509 2.438,-6.904 5.019,-13.828 7.439,-20.798 1.216,-3.504 2.543,-6.875 3.739,-10.377 1.178,-3.448 2.745,-7.062 3.732,-10.538 -0.99,-1.3 -2.699,-2.77 -3.842,-3.914l-25.969 -25.945 -0.121 113.081z"/>
   <path class="fil0" d="M251.797 91.446l-0.119 111.146c0.902,-0.62 6.03,-6.017 7.29,-7.27l18.458 -18.468c1.16,-1.176 2.647,-2.512 3.633,-3.746 -0.255,-1.392 -1.233,-3.74 -1.745,-5.203 -3.121,-8.93 -26.563,-77.034 -27.515,-78.485l-0.002 2.026z"/>
   <path class="fil0" d="M248.012 202.5l0.158 -112.726c-0.051,0.049 -0.108,0.114 -0.142,0.158 -0.034,0.044 -0.096,0.105 -0.135,0.158l-0.514 1.135c-0.139,0.433 -0.286,0.836 -0.448,1.288 -0.291,0.813 -0.6,1.686 -0.9,2.566 -7.687,22.51 -16.208,45.235 -23.903,67.756l-3.552 10.27 29.436 29.395z"/>
   <path class="fil0" d="M45.572 405.5l0 19.113 34.76 0 0 1.737 -34.76 0 0 11.728 41.276 0c2.507,0 5.214,-3.201 5.214,-5.647l0 -19.547 -34.759 0 0 -1.737 34.759 0 0 -11.946 -40.19 0c-3.458,0 -6.3,2.87 -6.3,6.299z"/>
   <path class="fil0" d="M247.8 324.538l0.15 -79.54c0.007,-8.783 0.32,-25.133 -0.035,-33.317l-22.044 22.225c-2.361,2.389 -5.142,4.949 -7.308,7.412l29.237 83.22z"/>
   <path class="fil0" d="M362.316 399.853l0 38.225 46.708 0 0 -11.728 -34.76 0 0 -3.692 34.76 0 0 -7.819 -34.76 0 0 -3.692 34.108 0c0.501,0 0.652,-0.151 0.652,-0.652l0 -11.294 -46.056 0c-0.501,0 -0.652,0.151 -0.652,0.652z"/>
   <path class="fil0" d="M312.784 410.495c0,1.081 3.113,0.652 5.214,0.652l17.361 0.198 -1.155 0.801c-0.559,0.37 -0.937,0.624 -1.433,0.956l-18.641 12.422c-0.487,0.316 -1.346,0.661 -1.346,1.261l0 11.293 46.708 0 0 -11.076c0,-1.081 -3.113,-0.652 -5.214,-0.652 -5.938,0 -11.876,0 -17.814,0l20.291 -13.596c0.653,-0.435 2.737,-1.558 2.737,-2.259l0 -10.642c0,-0.501 -0.151,-0.652 -0.652,-0.652l-46.056 0 0 11.294z"/>
   <path class="fil0" d="M411.848 438.078l11.731 0 0 -26.931 19.118 0 0 7.601 -15.425 0 0 11.729 7.17 0c0.192,0.827 1.584,2.89 2.103,3.76 0.808,1.354 1.521,2.479 2.241,3.841l15.642 0c-1.429,-2.699 -3.133,-5.119 -4.562,-7.819 2.845,-0.063 4.562,-2.284 4.562,-5.212l0 -21.067c0,-1.788 -1.116,-2.848 -2.264,-3.601 -1.239,-0.812 -2.738,-1.178 -4.688,-1.178l-35.628 0 0 38.877z"/>
   <path class="fil0" d="M176.137 438.078l11.731 0 0 -26.931 19.117 0 0 7.601 -15.424 0 0 11.729 7.169 0c0.194,0.725 1.651,2.938 2.131,3.733 0.492,0.813 2.017,3.131 2.214,3.868l15.642 0c-0.708,-1.337 -1.422,-2.557 -2.214,-3.868 -0.798,-1.322 -1.65,-2.63 -2.348,-3.951 2.744,-0.061 4.562,-2.191 4.562,-4.995l0 -21.719c0,-2.612 -3.702,-4.344 -6.952,-4.344l-35.628 0 0 38.877z"/>
   <path class="fil0" d="M283.673 175.897c-2.916,1.946 -28.056,28.613 -29.414,29.477l85.968 -0.057 -49.511 -25.782c-2.013,-1.075 -5.016,-2.82 -7.043,-3.638z"/>
   <path class="fil0" d="M216.11 175.915c-1.798,0.459 -53.974,28.608 -56.35,29.459l85.784 -0.024c-1.115,-0.971 -2.429,-2.451 -3.566,-3.589l-18.461 -18.466c-2.439,-2.442 -4.876,-5.095 -7.407,-7.38z"/>
   <polygon class="fil0" points="283.94,238.548 340.143,209 254.489,209.026 "/>
   <path class="fil0" d="M216.11 238.461l11.139 -10.995c2.453,-2.48 16.799,-16.81 18.131,-18.466l-85.544 0.072 56.274 29.389z"/>
   <path class="fil0" d="M222.627 405.066l0 27.365c0,2.555 2.67,5.647 5.214,5.647l37.366 0 0 -19.33 -11.731 0 0 7.602 -19.117 0 0 -15.203 30.848 0 0 -11.946 -36.062 0c-3.939,0 -6.518,3.249 -6.518,5.865z"/>
   <path class="fil0" d="M129.646 438.078l15.642 0c0.573,-1.083 1.125,-1.721 1.826,-2.735l12.34 -17.636c0.348,-0.527 0.568,-1.001 1.041,-1.347l0 9.99 -3.91 0c-0.216,0.805 -4.823,7.449 -5.649,8.688 -0.655,0.981 -1.397,1.984 -1.955,3.04l23.245 0 0 -38.877 -14.99 0c-0.587,0 -0.835,0.504 -1.097,0.859l-19.673 28.114c-1.136,1.721 -2.238,3.174 -3.385,4.868 -0.991,1.463 -2.69,3.628 -3.435,5.036z"/>
   <path class="fil0" d="M266.293 438.078l15.642 0c0.358,-0.675 0.463,-0.74 0.867,-1.305 0.347,-0.484 0.569,-0.886 0.963,-1.427 0.694,-0.953 1.217,-1.75 1.897,-2.664l9.484 -13.54c0.359,-0.529 0.582,-0.897 0.971,-1.419l1.026 -1.363 0 9.99c-4.676,0 -3.06,-0.95 -7.518,5.734 -1.38,2.071 -2.652,3.986 -3.996,5.994l23.244 0 0 -38.877 -14.989 0c-0.849,0 -3.199,3.934 -3.648,4.607 -0.575,0.862 -1.078,1.541 -1.695,2.432l-6.822 9.686c-3.687,5.193 -8.27,12.125 -11.983,17.124l-3.443 5.028z"/>
   <polygon class="fil0" points="94.67,411.147 110.094,411.147 110.094,438.078 121.825,438.078 121.825,411.147 137.25,411.147 137.25,399.201 94.67,399.201 "/>
   <path class="fil0" d="M61.431 464.141c0,3.646 2.706,4.995 6.083,4.995l61.915 0c8.573,0 7.302,-9.339 1.086,-9.339l-64.087 0c-2.935,0 -4.997,2.271 -4.997,4.344z"/>
   <path class="fil0" d="M371.223 469.136l61.263 0c3.611,0 6.3,-1.02 6.3,-4.995 0,-2.635 -2.31,-4.344 -4.996,-4.344l-64.305 0c-5.341,0 -7.744,9.339 1.738,9.339z"/>
   <path class="fil0" d="M307.136 268.671c0,2.835 3.455,5.517 5.811,7.874l34.216 34.206c2.327,2.326 4.481,4.554 6.838,6.847 2.03,1.974 4.945,2.262 6.968,0.115 1.279,-1.358 1.13,-2.34 1.13,-3.866 0,-1.763 -3.994,-5.188 -5.594,-6.787 -4.047,-4.047 -41.234,-41.478 -42.319,-42.18 -3.187,-2.063 -7.05,0.487 -7.05,3.791z"/>
   <path class="fil0" d="M311.915 149.218c2.872,0 5.416,-3.351 7.875,-5.81 2.334,-2.333 4.509,-4.508 6.844,-6.841 4.615,-4.614 9.07,-9.069 13.686,-13.683 4.615,-4.614 9.071,-9.069 13.686,-13.683 2.225,-2.224 4.791,-4.539 6.842,-6.842 1.051,-1.181 2.027,-2.744 1.439,-4.798 -0.826,-2.883 -2.901,-3.292 -5.185,-3.292 -1.86,0 -5.941,4.745 -7.332,6.136l-34.216 34.207c-2.298,2.297 -4.642,4.489 -6.85,6.835 -2.86,3.04 -0.519,7.771 3.211,7.771z"/>
   <path class="fil0" d="M137.25 98.396c0,2.419 0.634,2.92 2.226,4.506l44.101 44.09c4.618,4.633 8.636,1.19 8.636,-2.769 0,-2.382 -3.175,-4.803 -5.377,-7.005l-40.951 -40.94c-5.11,-5.125 -8.635,-0.163 -8.635,2.118z"/>
   <path class="fil0" d="M136.815 314.715l0 1.086c0,2.146 1.981,4.127 4.128,4.127 2.523,0 2.635,-0.354 4.725,-2.443l40.624 -40.615c1.104,-1.102 2.047,-2.046 3.151,-3.149 1.459,-1.458 2.335,-1.939 2.335,-4.398 0,-2.32 -1.977,-4.344 -4.779,-4.344 -2.383,0 -4.804,3.175 -7.007,5.376l-40.624 40.614c-0.844,0.843 -2.553,2.257 -2.553,3.746z"/>
   <path class="fil0" d="M258.038 474.566l5.866 0 0 -13.466c2.679,0 6.517,-0.018 6.517,3.692 0,4.115 -3.175,4.127 -5.866,4.127l0 5.647c0.9,0.02 0.829,0.217 1.304,0.217 13.886,0 13.691,-19.113 0.869,-19.113l-8.69 0 0 18.896z"/>
   <path class="fil0" d="M335.378 465.444c0,-6.65 8.037,-5.176 8.037,-1.086 0,1.645 0.048,2.683 -1.244,3.968 -2.131,2.118 -6.793,0.858 -6.793,-2.882zm-5.866 -1.303l0 1.52c0,4.869 4.486,9.339 9.341,9.339l1.521 0c4.286,0 8.907,-4.62 8.907,-8.905 0,-3.391 -0.091,-5.225 -2.769,-7.874 -0.986,-0.975 -1.131,-1.211 -2.397,-1.947 -2.013,-1.17 -3.51,-1.038 -5.696,-1.038 -4.285,0 -8.907,4.621 -8.907,8.905z"/>
   <path class="fil0" d="M219.803 467.399c0,2.157 0.476,3.87 1.306,5.209 0.828,1.335 2.497,2.18 4.362,2.392l1.87 0c1.824,-0.205 3.634,-1.02 4.883,-2.568 1.16,-1.438 1.483,-3.575 1.483,-6.119l0 -10.643 -5.866 0c0,2.807 0.284,11.316 -0.218,13.466 -0.617,0.144 -1.954,0.775 -1.954,-1.086l0 -12.38 -5.866 0 0 11.729z"/>
   <polygon class="fil0" points="182.871,461.1 186.999,461.1 186.999,474.566 192.864,474.566 192.864,461.1 196.992,461.1 196.992,455.67 182.871,455.67 "/>
   <path class="fil0" d="M151.805 461.317c0,4.517 1.955,5.072 1.955,6.516 0,1.95 -1.828,1.668 -3.041,1.086l0 5.647c1.399,0.116 0.347,0.434 3.476,0.434 2.632,0 5.139,-2.512 5.733,-4.694 0.432,-1.582 0.299,-2.832 -0.212,-4.301 -0.826,-2.383 -3.65,-5.122 0.779,-5.122l0 -5.43c-1.491,-0.124 -0.688,-0.217 -3.042,-0.217 -2.861,0 -5.648,3.137 -5.648,6.081z"/>
   <path class="fil0" d="M299.967 474.566l5.214 0c0.5,0 0.651,-0.151 0.651,-0.652l0 -18.244 -5.865 0 0 18.896z"/>
   <path class="fil0" d="M287.801 468.05c3.591,0 4.039,-5.864 -0.218,-5.864 -3.476,0 -3.789,5.864 0.218,5.864z"/>
   <path class="fil0" d="M169.837 465.879c0,3.552 5.865,4.087 5.865,-0.218 0,-3.514 -5.865,-3.735 -5.865,0.218z"/>
   <path class="fil0" d="M203.509 465.444c0,1.797 0.473,3.258 3.042,3.258 3.482,0 3.531,-5.781 -0.217,-5.77 -1.325,0.004 -2.825,0.967 -2.825,2.512z"/>
   <path class="fil0" d="M314.522 464.792c0,4.32 5.649,4.427 5.649,0 0,-3.407 -5.649,-3.407 -5.649,0z"/>
   <path class="fil0" d="M243.265 465.661c0,3.457 4.309,4.182 5.578,1.222 1.025,-2.39 -1.496,-4.614 -3.746,-3.75 -0.876,0.336 -1.832,1.445 -1.832,2.528z"/>
  </g>
 </g>
</svg>
