<?xml version="1.0" encoding="UTF-8"?>
<!DOCTYPE svg PUBLIC "-//W3C//DTD SVG 1.1//EN" "http://www.w3.org/Graphics/SVG/1.1/DTD/svg11.dtd">
<!-- Creator: CorelDRAW 2021 (64-Bit) -->
<svg xmlns="http://www.w3.org/2000/svg" xml:space="preserve" width="500px" height="500px" version="1.1" style="shape-rendering:geometricPrecision; text-rendering:geometricPrecision; image-rendering:optimizeQuality; fill-rule:evenodd; clip-rule:evenodd"
viewBox="0 0 500 500"
 xmlns:xlink="http://www.w3.org/1999/xlink"
 xmlns:xodm="http://www.corel.com/coreldraw/odm/2003">
 <defs>
  <style type="text/css">
   <![CDATA[
    .fil0 {fill:#ADADAD}
   ]]>
  </style>
 </defs>
 <g id="Capa_x0020_1">
  <metadata id="CorelCorpID_0Corel-Layer"/>
  <path class="fil0" d="M38.557 118.135c0,-7.803 0.595,-10.002 8.56,-10.006l403.848 0c9.164,0 10.471,0.473 10.465,10.006l0.004 211.116c0,9.545 -1.374,9.966 -10.469,9.966l-401.313 0c-8.251,0 -11.099,0.157 -11.099,-8.698l0.004 -212.384zm3.486 -23.087c-6.69,0.828 -11.018,4.154 -13.632,8.192 -3.919,6.053 -3.106,11.32 -3.106,19.333l0 176.247c0,9.18 -1.391,36.395 1.765,42.863 6.012,12.327 17.347,10.768 33.36,10.768 125.318,0 250.635,0 375.953,0 15.348,0 27.422,3.017 35.1,-8.396 4.103,-6.098 3.195,-11.312 3.195,-19.242l0 -176.247c0,-9.428 1.435,-36.054 -1.757,-42.876 -5.763,-12.32 -17.661,-10.819 -33.368,-10.819 -125.318,0 -250.635,0 -375.953,0 -6.253,0 -15.827,-0.532 -21.557,0.177z"/>
  <path class="fil0" d="M122.769 397.088c2.026,10.389 20.356,7.924 28.955,7.924 62.131,0 124.261,0 186.392,0 8.511,0 29.057,1.543 34.811,-2.262 3.28,-2.169 6.707,-7.31 2.89,-12.299 -3.083,-4.028 -6.769,-4.476 -12.993,-5.281l-83.072 -10.738c-5.162,-0.629 -4.911,0.47 -5.732,-3.89 -2.208,-11.726 -20.008,-8.687 -37.363,-8.328 -6.033,0.125 -9.718,2.899 -10.801,8.286 -0.87,4.328 -0.538,3.306 -5.625,3.93l-74.059 9.584c-7.5,1.001 -25.821,0.673 -23.403,13.074z"/>
  <path class="fil0" d="M148.048 124.557c-3.25,1.933 -75.855,75.44 -84.564,84.088 -1.372,1.362 -5.182,4.659 -6.04,6.067 -2.021,3.315 0.459,7.024 4.523,5.155 0.743,-0.341 10.765,-10.504 12.163,-11.951l36.14 -36.134c3.812,-3.641 8.258,-8.163 12.014,-12.068l24.108 -24.087c1.16,-1.119 5.399,-5.103 6.035,-6.085 2.137,-3.302 -0.674,-7.187 -4.379,-4.985z"/>
  <path class="fil0" d="M142.228 153.957c-0.839,1.622 -0.291,1.001 -1.752,2.392 -1.253,1.194 -0.953,0.914 -2.354,1.589 -0.398,0.927 -0.091,0.576 -0.894,1.532l-40.156 39.617c-0.961,1.921 -2.085,3 -3.995,3.977 -1.829,4.997 -12.156,7.485 -6.705,13.824l3.356 0.227c2.093,-2.644 4.546,-4.815 7.463,-7.672l46.343 -46.277c2.136,-2.211 10.074,-8.469 4.733,-11.082 -1.738,-0.282 -2.055,-0.57 -3.589,0.221l-1.362 1.101c-0.09,0.061 -0.27,0.176 -0.353,0.227l-0.735 0.324z"/>
  <path class="fil0" d="M60.393 191.087c5.027,3.194 5.79,0.068 12.167,-6.306 2.258,-2.256 5.521,-5.441 7.913,-7.93l39.059 -38.937c5.496,-5.496 6.321,-4.922 5.215,-9.898l-4.922 -0.736 -30.631 31.026c-8.906,8.47 -17.797,18.352 -26.618,26.64 -2.314,2.174 -2.861,1.79 -2.183,6.141z"/>
  <path class="fil0" d="M93.077 203.064c1.91,-0.977 3.034,-2.056 3.995,-3.977 -2.658,-0.699 -3.633,2.157 -3.995,3.977z"/>
  <path class="fil0" d="M138.122 157.938c1.401,-0.675 1.101,-0.395 2.354,-1.589 1.461,-1.391 0.913,-0.77 1.752,-2.392 -2.106,0.559 -4.344,1.249 -4.106,3.981z"/>
 </g>
</svg>
