<?xml version="1.0" encoding="UTF-8"?>
<!DOCTYPE svg PUBLIC "-//W3C//DTD SVG 1.1//EN" "http://www.w3.org/Graphics/SVG/1.1/DTD/svg11.dtd">
<!-- Creator: CorelDRAW 2021 (64-Bit) -->
<svg xmlns="http://www.w3.org/2000/svg" xml:space="preserve" width="500px" height="500px" version="1.1" style="shape-rendering:geometricPrecision; text-rendering:geometricPrecision; image-rendering:optimizeQuality; fill-rule:evenodd; clip-rule:evenodd"
viewBox="0 0 500 500"
 xmlns:xlink="http://www.w3.org/1999/xlink"
 xmlns:xodm="http://www.corel.com/coreldraw/odm/2003">
 <defs>
  <style type="text/css">
   <![CDATA[
    .fil0 {fill:#ADADAD}
   ]]>
  </style>
 </defs>
 <g id="Capa_x0020_1">
  <metadata id="CorelCorpID_0Corel-Layer"/>
  <g id="_2604671854976">
   <path class="fil0" d="M243.96 301.72c-10.237,0 -24.22,-8.283 -31.989,-14.824 -3.042,-2.561 -7.439,-15.202 -8.921,-20.147 -3.863,-12.895 -3.371,-26.916 1.915,-39.133 3.755,-8.68 8.933,-15.242 16.125,-20.872 2.26,-1.768 4.93,-3.552 7.515,-4.942 19.635,-10.558 49.725,-5.346 66.03,9.226 1.223,1.092 2.267,1.881 3.412,3.006 1.892,1.858 1.557,1.625 2.589,4.206 2.587,6.465 5.755,11.165 7.342,19.084 0.528,2.633 0.312,3.992 0.984,5.433 3.269,7.013 0.129,9.198 -2.098,16.54 -0.893,2.945 -0.123,2.76 -1.523,6.027l-5.35 9.751c-3.907,5.742 -9.06,11.092 -14.608,15.217 -12.559,9.339 -24.757,11.428 -41.423,11.428zm81.166 -53.23c0,-17.024 -7.041,-31.348 -17.041,-43.739 -3.22,-3.991 -11.929,-10.823 -16.633,-13.946 -16.624,-11.035 -23.907,-7.195 -27.48,-7.981 -0.846,-0.186 -1.75,-0.46 -2.798,-0.625 -18.4,-2.903 -34.943,4.311 -51.065,12.055 -5.223,2.508 -2.736,0.415 -7.393,5.064 -1.322,1.32 -1.851,1.891 -3.045,3.373 -1.017,1.265 -1.938,2.276 -2.829,3.589 -7.771,11.445 -12.217,20.08 -12.911,34.656 -0.078,1.644 -0.29,1.385 -0.379,3.028 -0.054,0.976 0.065,1.984 0.087,2.918 0.003,0.12 0.006,0.424 0,0.524l2.397 18.236c2.202,15.097 5.489,24.956 15.736,35.229 8.39,8.411 19.54,11.981 31.208,13.339 9.257,1.078 20.361,0.333 29.155,-1.11 3.795,-0.623 7.113,-1.678 10.561,-2.275 14.64,-2.532 22.455,-7.863 31.507,-19.457 5.334,-6.833 10.706,-15.605 15.8,-22.33 2.526,-3.335 2.686,-4.396 3.764,-9.072 0.74,-3.211 1.359,-7.782 1.359,-11.476z"/>
   <path class="fil0" d="M223.196 243.582c0,-5.155 -0.161,-3.313 1.619,-7.442 3.381,-7.846 6.534,-13.613 14.879,-17.209 7.868,-3.391 18.215,-2.323 26.087,-0.191 2.528,0.685 9.364,3.587 11.171,5.063 7.757,6.331 11.554,25.022 6.647,36.013 -2.16,4.84 -5.743,8.888 -9.728,12.168 -10.913,8.98 -19.271,6.261 -31.648,3.914 -4.401,-0.835 -4.286,-2.535 -7.041,-5.418 -5.912,-6.186 -11.986,-17.847 -11.986,-26.898zm-16.61 5.663c0,8.265 4.4,11.13 6.912,17.626 1.695,4.384 3.313,6.641 6.594,10.394 1.013,1.159 1.72,2.138 2.818,3.223 6.135,6.065 12.224,11.438 21.071,13.283 9.257,1.929 21.08,-0.723 28.67,-4.509 7.677,-3.829 13.096,-9.585 18.595,-15.759 6.121,-6.87 4.938,-5.837 6.099,-11.268 0.161,-0.756 0.492,-1.584 0.84,-2.179 0.592,-1.011 1.005,-1.089 1.329,-1.692 0.601,-1.122 0.696,-9.304 0.696,-11.384 0,-3.431 -1.073,-6.428 -2.265,-8.683 1.865,-2.785 1.366,-2.727 -0.375,-5.665 -1.638,-2.762 1.024,-2.218 -5.064,-10.037 -4.676,-6.004 -16.835,-14.316 -23.925,-16.092 -8.121,-2.035 -18.582,-3.892 -27.518,-1.305 -3.62,1.049 -4.994,1.864 -7.669,3.657 -2.602,1.743 -3.217,1.628 -6.641,4.308 -3.865,3.025 -5.419,4.622 -8.253,8.357 -7.901,10.414 -8.186,19.079 -10.622,23.354 -0.593,1.039 -1.292,2.919 -1.292,4.371z"/>
   <path class="fil0" d="M136.745 338.339c0,0.723 0.724,2.465 1.057,3.095 1.165,2.195 4.336,3.676 7.365,6.226 3.974,3.347 6.793,6.157 12.719,6.157 4.136,0 5.37,-1.398 7.456,-3.492 1.706,-1.711 4.015,-3.73 5.435,-5.512 0.994,-1.246 1.342,-1.656 2.496,-2.79l7.641 -8.969c1.623,-2.078 3.141,-3.937 4.8,-6.148 6.557,-8.734 7.737,-10.06 12.943,-19.901 -3.18,-2.13 -6.33,-7.172 -15.477,-7.172 -8.399,0 -14.492,7.146 -19.537,12.174l-15.285 16.427 -6.196 4.374c-1.738,0.876 -5.417,2.211 -5.417,5.531z"/>
   <path class="fil0" d="M212.626 390.059c7.441,0 13.793,-1.691 17.683,-7.611 1.359,-2.068 2.012,-5.212 3.189,-8.136 4.397,-10.931 7.968,-24.227 9.298,-36.004 0.172,-1.525 0.847,-9.503 1.164,-10.162 -2.082,-1.101 -3.118,-2.007 -5.761,-2.545 -6.66,-1.355 -10.371,-1.747 -14.785,4.65 -1.826,2.646 -3.144,5.273 -4.828,8.008 -1.862,3.023 -1.41,6.697 -3.316,9.519 -1.367,2.023 -1.091,2.217 -1.441,4.978 -0.872,6.895 -3.947,0.687 -9.584,23.259 -1.416,5.664 -2.642,6.514 -0.472,9.684 1.497,2.186 5.308,4.36 8.853,4.36z"/>
   <path class="fil0" d="M112.961 185.822c0,21.302 28.008,18.887 46.311,27.305 6.807,3.129 5.742,4.601 11.322,7.177 4.786,2.21 9.188,3.842 9.188,-3.903 0,-5.272 -4.796,-14.963 -7.442,-17.474 -6.112,-5.799 -15.83,-9.829 -23.64,-13.734 -7.816,-3.908 -18.552,-11.829 -25.546,-11.829 -2.846,0 -7.766,1.719 -8.733,3.725l-0.87 3.66c-0.292,1.652 -0.59,3.386 -0.59,5.073z"/>
   <path class="fil0" d="M398.364 270.386c0,-4.308 -3.19,-8.888 -4.833,-12.911 -0.815,-1.996 -0.73,-1.393 -4.605,-2.945l-11.747 -4.108c-17.234,-5.469 -9.992,-2.73 -25.255,-5.325 -1.604,-0.273 -2.758,-0.499 -4.378,-0.906 -4.47,-1.123 -11.372,-2.353 -14.983,1.165 -5.339,5.202 -0.246,10.705 2.685,15.285 1.985,3.1 0.308,1.901 3.684,3.866 1.908,1.113 2.997,1.659 5.069,2.482 3.693,1.466 7.557,2.832 11.374,4.104l23.358 7.221c4.98,1.369 0.847,0.621 6.325,1.256 6.411,0.743 13.306,-1.542 13.306,-9.184z"/>
   <path class="fil0" d="M267.743 328.146c0,7.496 5.353,12.727 7.439,23.517 0.396,2.047 0.761,2.085 1.393,3.893 2.451,7.018 3.844,14.442 5.945,20.103 0.709,1.911 3.988,8.974 5.738,10.118 2.544,1.662 7.799,0.692 10.502,-1.321 3.136,-2.335 5.368,-5.585 8.166,-8.445 4.135,-4.229 -1.457,-15.155 -3.77,-18.722 -2.517,-3.882 -3.634,-6.912 -5.08,-11.908 -1.336,-4.61 -2.339,-8.794 -3.956,-13.033 -2.291,-6.006 -6.035,-11.068 -12.07,-13.223 -4.579,-1.634 -8.774,-1.011 -11.944,2.7 -1.332,1.559 -2.363,3.557 -2.363,6.321z"/>
   <path class="fil0" d="M308.893 186.2c2.904,0 2.103,-1.297 4.483,-1.96 2.661,-0.741 1.002,0.9 3.539,-1.716 2.101,-2.166 4.07,-3.698 6.229,-5.857l21.09 -21.191c0.782,-1.267 0.746,-2.885 1.662,-4.379 3.127,-5.1 10.941,-8.312 10.941,-13.597 0,-1.791 -0.423,-2.727 -0.754,-4.153 -16.366,-3.812 -15.455,-12.084 -27.997,-1.947 -2.457,1.987 -4.486,4.364 -6.358,6.855 -6.356,8.453 -8.241,16.281 -11.398,21.446 -2.846,4.657 -1.786,6.146 -7.219,12.789 -1.405,1.716 -3.01,4.067 -3.379,6.439 -0.156,1.006 -0.133,1.01 0.604,2.21 2.239,3.644 3.868,3.237 6.216,4.003 1.014,0.331 1.633,1.058 2.341,1.058z"/>
   <path class="fil0" d="M183.18 125.797c0,0.556 3.058,7.255 3.555,8.148 7.792,13.982 17.419,27.175 28.068,39.13 4.491,5.041 3.792,5.575 11.414,5.575 5.388,0 6.795,-6.495 6.795,-10.949 0,-9.36 -9.535,-17.507 -13.673,-24.078 -1.205,-1.913 -1.257,-2.988 -2.839,-4.712 -7.266,-7.918 -7.103,-22.505 -18.754,-27.313 -2.507,-1.035 -3.007,-0.873 -5.21,0.526 -3.358,2.133 -5.359,4.219 -7.226,7.876 -0.484,0.948 -2.13,4.82 -2.13,5.797z"/>
   <path class="fil0" d="M260.57 124.664c0,10.435 2.051,21.182 0.712,31.669 -0.38,2.982 -2.222,2.718 -2.222,4.195 0,5.625 -1.327,10.571 6.04,10.571 4.029,0 11.636,-5.991 12.624,-10.027 2.329,-9.508 12.293,-48.83 12.293,-57.549 0,-4.787 -7.327,-3.397 -8.306,-3.397 -4.925,0 -2.693,-2.227 -9.187,1.005 -8.616,4.287 -11.954,12.768 -11.954,23.533z"/>
   <path class="fil0" d="M308.893 302.853c0,11.485 13.503,19.341 22.721,25.599 1.511,1.027 2.788,1.778 4.301,2.873 2.685,1.942 9.309,6.914 11.263,9.501 4.733,6.267 14.296,-0.528 18.085,-4.255 3.358,-3.304 1.444,-12.029 -1.187,-15.287 -1.657,-2.052 -2.8,-2.791 -4.479,-4.203 -4.563,-3.836 -7.127,-5.246 -12.321,-8.065 -1.507,-0.818 -2.609,-1.136 -4.16,-1.88 -5.361,-2.574 -10.268,-5.146 -15.599,-7.807 -7.22,-3.604 -11.575,-7.203 -14.849,-8.935 -1.992,2.974 -3.775,7.484 -3.775,12.459z"/>
   <path class="fil0" d="M344.38 199.035c-6.109,0 -12.563,6.403 -15.101,10.193 2.54,3.793 7.325,5.338 11.932,6.224 1.96,0.378 20.645,-5.465 23.696,-6.459 7.989,-2.603 16.147,-4.38 24.572,-6.007 2.496,-0.482 2.176,-0.809 3.695,-2.346 2.071,-2.095 5.19,-4.327 5.19,-7.645 0,-4.438 -4.98,-12.769 -9.052,-15.864 -6.286,-4.776 -6.32,-3.666 -15.639,2.499 -3.495,2.312 -6.071,4.416 -10.04,6.192 -0.848,0.379 -1.729,0.665 -2.783,0.993 -5.361,1.671 -1.699,1.867 -7.66,4.798 -3.304,1.624 -8.509,3.793 -8.81,7.422z"/>
   <path class="fil0" d="M105.033 271.141c0,5.741 3.308,12.911 6.963,14.933 2.091,1.158 9.863,0.923 12.668,0.923 4.422,0 10.165,-1.022 13.896,-1.961 6.642,-1.67 20.088,-5.406 25.416,-6.296 7.609,-1.27 10.898,0.06 10.898,-6.844 0,-1.059 -1.05,-4.041 -3.05,-4.877 -6.618,-2.767 -21.273,-5.693 -28.661,-5.693 -9.595,0 -16.065,-0.213 -25.428,2.508 -2.851,0.829 -4.786,1.474 -7.364,2.452 -4.001,1.517 -5.338,1.716 -5.338,4.855z"/>
   <path class="fil0" d="M256.418 255.663c-2.886,0 -2.591,-1.449 -4.103,-3.07 -1.185,-1.271 -2.315,-0.778 -2.315,-5.613 0,-1.536 0.12,-3.161 0.695,-4.212 2.461,-4.497 12.409,-0.563 11.636,5.201 -0.283,2.106 -1.327,3.103 -2.396,4.416 -0.71,0.873 -2.345,3.278 -3.517,3.278zm-1.511 12.08c4.329,0 10.277,-2.361 13.383,-4.738 5.584,-4.275 4.508,-3.929 7.76,-10.361 1.565,-3.093 2.641,-5.926 2.641,-10.194 0,-2.821 -1.914,-4.85 -3.102,-6.713 -1.994,-3.123 -0.389,-3.632 -4.132,-6.061 -2.167,-1.406 -4.228,-2.317 -7.271,-2.922 -4.109,-0.82 -6.917,-0.915 -11.166,-0.915 -2.887,0 -10.596,5.143 -13.216,7.17 -2.063,1.595 -3.347,3.105 -4.843,5.359 -1.068,1.609 -1.141,1.513 -0.785,3.632 1.621,9.667 2.998,19.823 12.049,23.856 1.985,0.885 5.843,1.887 8.682,1.887z"/>
   <path class="fil0" d="M436.871 224.329c5.843,0 24.722,-2.093 31.334,-2.643 1.195,5.131 1.132,2.097 1.132,8.306 0,15.953 -29.575,19.027 -32.366,1.787 -0.589,-3.642 -0.1,-3.864 -0.1,-7.45zm1.132 -5.663c-4.265,0 -2.713,-2.695 -3.775,-4.908 -1.683,0.45 -0.911,-0.021 -0.755,4.151l1.609 16.136c3,16.065 18.586,18.924 28.72,13.062 12.843,-7.43 6.668,-24.178 6.668,-36.369 -2.421,0.202 -0.804,0.333 -1.26,2.863 -0.285,1.581 -1.131,2.322 -2.658,2.658l-28.549 2.407z"/>
   <path class="fil0" d="M257.928 61.241c-2.667,0 -4.992,-0.95 -7.173,-1.132 0.784,-1.634 1.013,-15.966 1.12,-19.643 0.055,-1.865 0.348,-1.886 0.402,-3.751 0.04,-1.336 -0.101,-2.825 0.008,-4.145 0.124,-1.498 0.358,-1.827 0.358,-3.795 10.577,-2.464 20.493,4.29 19.416,16.015 -0.64,6.979 -2.081,11.709 -7.954,14.701 -1.718,0.875 -4.181,1.75 -6.177,1.75zm-18.121 0.756c2.148,1.03 21.005,1.993 26.95,0.146 15.342,-4.768 15.972,-29.964 0.754,-34.646 -4.599,-1.415 -19.811,-2.497 -25.439,-2.497 0.348,4.186 5.008,-2.38 4.926,7.18l-1.307 23.242c-0.272,1.906 -0.047,3.754 -1.168,4.873 -1.881,1.878 -3.446,-0.032 -4.716,1.702z"/>
   <path class="fil0" d="M319.463 72.944c-5.736,0 -5.872,-0.512 -11.326,-3.397l10.949 -29.447c7.406,0 15.1,5.938 15.1,14.346 0,8.585 -6.273,18.498 -14.723,18.498zm-9.438 -38.129c1.736,0.144 3.775,1.251 3.775,3.02 0,1.699 -4.773,13.848 -5.608,15.911 -1.063,2.626 -2.075,5.397 -3.017,7.93 -3.381,9.086 -3.63,5.968 -7.985,5.606l0 1.132c9.24,2.153 27.471,15.092 38.193,1.575 5.061,-6.382 7.163,-17.551 1.362,-23.764 -5.084,-5.446 -14.228,-8.343 -21.768,-11.076 -1.387,-0.503 -3.643,-1.216 -4.952,-1.844l0 1.51z"/>
   <path class="fil0" d="M156.376 49.161c2.463,-1.65 6.534,-4.153 10.57,-4.153 4.731,0 9.08,2.637 11.175,5.436 6.572,8.783 7.176,21.087 -4.118,26.159 -1.772,0.796 -4.019,0.893 -5.547,1.627 -0.273,-1.174 -0.896,-2.226 -1.403,-3.505l-9.117 -21.839c-0.542,-1.321 -0.944,-2.56 -1.56,-3.725zm-10.949 1.133l0 1.132c4.482,-0.373 4.725,-3.448 8.364,5.605l6.196 14.945c2.034,5.118 5.519,10.115 -0.591,11.539l0 1.132c1.958,-0.163 6.191,-2.241 7.986,-2.962 8.107,-3.259 15.969,-5.793 19.707,-13.514 5.518,-11.398 -4.176,-26.561 -14.48,-26.561 -11.025,0 -20.766,7.189 -27.182,8.684z"/>
   <path class="fil0" d="M80.873 109.941c3.237,0 6.839,2.384 7.619,6.38 0.86,4.403 -2.204,7.404 -3.845,9.853l-5.921 -4.649c-2.099,-1.699 -3.988,-3.335 -6.159,-4.788 1.928,-2.879 3.556,-6.796 8.306,-6.796zm-12.459 11.326c1.816,0 4.99,3.002 6.845,4.48 2.406,1.917 18.449,14.081 18.449,15.906 0,3.165 -3.135,5.246 -0.971,4.702 0.674,-0.169 9.661,-11.243 10.031,-12.63 -3.518,0.292 -2.345,5.405 -8.773,0.09l-7.838 -6.508c0.799,-1.192 1.096,-1.144 1.888,-2.643 7.434,0 13.679,0.756 21.141,0.756 1.27,0 4.431,-4.599 5.291,-5.664 0.339,-0.419 2.788,-2.844 0.598,-2.426 -0.221,0.042 -2.759,1.937 -3.418,2.256 -3.802,1.834 -14.825,0.171 -20.214,0.171 0.502,-2.156 1.51,-3.36 1.51,-6.418 0,-6.394 -8.763,-13.021 -16.711,-5.008 -3.024,3.048 -7.796,9.123 -10.687,12.721 -0.367,0.456 -3.006,3.241 -0.755,2.651 0.853,-0.224 1.473,-2.436 3.614,-2.436z"/>
   <path class="fil0" d="M25.755 257.173l1.132 0c0,-4.721 -0.527,-5.963 10.18,-6.054 5.432,-0.047 9.869,-0.742 15.492,-0.742l-7.71 7.392c-1.685,1.301 -2.418,2.241 -3.891,3.659l-12.025 11.004c-3.694,2.792 -1.607,4.096 -1.668,8.901 -0.025,2.012 -0.412,2.543 0.755,3.399 1.244,-0.912 0.597,-0.237 0.795,-2.225 0.798,-7.986 8.275,-5.313 15.919,-6.355 3.05,-0.416 15.812,-1.633 17.554,-0.018 2.083,1.931 -0.771,3.808 2.351,4.067 0,-1.686 -0.76,-12.438 -1.132,-13.213 -1.857,0.496 -0.475,0.228 -0.942,2.804 -0.669,3.689 -4.467,2.941 -10.384,3.236 -4.554,0.227 -12.505,1.133 -16.988,1.133l21.234 -19.915c2.192,-2.213 6.505,-4.902 6.702,-7.266 -3.183,0 -5.214,0.292 -8.315,0.368 -1.911,0.046 -2.082,0.385 -4.13,0.4l-12.853 0.738c-6.79,-0.018 -11.698,2.84 -11.698,-4.526l-1.133 0 0.755 13.213z"/>
   <path class="fil0" d="M43.876 161.661c3.956,-2.898 -1.17,-7.294 16.109,2.012l12.599 6.654c2.452,1.414 3.758,1.226 3.758,3.792 0,2.172 -1.17,2.5 -0.378,4.153 1.369,-1.003 10.96,-21.066 12.965,-24.41 0.454,-0.756 0.191,-0.382 0.626,-0.884 -1.358,-2.029 -5.204,-6.232 -7.172,-7.551 -0.59,2.782 3.02,4.622 3.02,8.683 0,2.132 -5.277,12.836 -6.418,12.836 -1.853,0 -11.918,-5.711 -13.968,-6.795 1.04,-1.966 2.028,-4.046 3.017,-6.043 3.997,-8.075 5.75,-2.741 8.686,-4.15 -0.45,-1.242 -0.198,-0.644 -2.647,-1.884 -1.739,-0.882 -7.746,-4.937 -9.434,-4.157 1.048,3.925 6.913,-0.817 -1.51,15.101 -1.626,-0.379 -10.684,-5.279 -12.835,-6.418 0.403,-1.732 2.642,-5.706 3.615,-7.331 1.63,-2.723 2.179,-5.882 5.822,-5.882 3.251,0 4.547,1.511 4.03,-0.244 -0.305,-1.034 -6.184,-3.241 -7.427,-3.53l-10.069 19.377c-1.113,2.066 -3.083,5.225 -2.389,6.671z"/>
   <path class="fil0" d="M355.705 52.936c1.053,2.91 5.72,0.945 1.493,7.911l-10.328 16.098c-2.175,3.244 -3.741,7.325 -6.643,7.325 -2.074,0 -3.158,-2.124 -3.616,-0.944 -0.488,1.257 -0.384,0.414 2.786,2.529 1.257,0.839 2.177,1.446 3.454,2.208l13.768 8.883c0.826,0.503 1.082,0.605 1.889,1.132l1.727 1.292 7.928 -6.417c-2.111,-1.013 -3.262,1.887 -8.683,1.887 -2.781,0 -7.095,-3.268 -9.97,-5.13 -4.431,-2.869 -1.741,-3.438 3.534,-12.253 0.592,-0.988 1.63,-2.347 1.906,-3.38 2.351,1.244 10.193,5.539 10.193,8.306 0,1.534 -0.966,2.148 -1.133,4.152 1.354,-0.112 0.684,0.671 2.425,-2.106 0.733,-1.169 1.111,-1.886 1.877,-3.03 1.336,-1.997 2.533,-3.746 3.626,-5.812 -2.305,-0.488 -0.981,0.352 -3.397,1.906 -3.654,2.351 -8.114,-3.867 -12.081,-4.926 0.432,-1.62 2.725,-4.588 3.703,-6.113 1.389,-2.166 2.664,-4.109 3.847,-6.345l7.024 4.301c4.751,3.18 6.446,3.703 4.784,8.705 -0.521,1.566 -0.584,1.268 0.65,2.095 0.952,-1.8 3.627,-5.766 3.775,-7.55 -1.004,-0.674 -2.021,-1.217 -3.023,-1.884 -1.046,-0.697 -1.877,-1.239 -2.999,-1.91l-16.787 -10.814c-0.694,-0.356 -1.161,-0.762 -1.729,-0.116z"/>
   <path class="fil0" d="M111.451 74.077c0,2.402 -12.458,2.751 -12.458,13.213 0,4.943 3.915,9.438 8.683,9.438 6.886,0 8.23,-0.734 14.724,-1.892 12.189,-2.175 11.335,12.835 -1.265,13.813 -4.499,0.349 -7.241,-3.897 -8.44,-3.379 -1.24,0.536 1.496,2.957 3.231,5.104l2.799 3.242c0.914,0.962 1.055,0.663 1.409,1.988 0.323,-0.216 0.258,0.064 0.63,-0.479 1.03,-1.5 -1.399,-2.313 1.862,-3.824 3.808,-1.765 11.854,-4.537 11.854,-11.931 0,-3.48 0.259,-5.486 -3.1,-8.602 -5.654,-5.245 -14.245,-0.08 -24.836,-0.08 -4.209,0 -6.046,-6.469 -1.688,-9.993 7.499,-6.063 12.745,1.099 15.278,1.31 -0.155,-1.859 -1.547,-2.589 -3.284,-4.643l-2.597 -3.067c-0.527,-0.683 -0.54,-0.839 -1.186,-1.501 -2.594,-2.652 -1.616,-0.072 -1.616,1.283z"/>
   <path class="fil0" d="M30.663 293.792l-1.133 0c0,2.313 2.685,9.779 3.397,12.835l1.133 0c-0.109,-4.888 -2.206,-4.795 4.668,-7.035l13.407 -3.958c5.765,-1.698 10.307,-2.957 14.457,2.245 3.739,4.686 4.805,12.249 -2.329,15.546 -3.618,1.672 -15.788,5.148 -20.087,6.339 -1.686,0.466 -3.508,1.234 -5.044,0.308 -2.272,-1.368 -0.49,-3.405 -3.184,-3.629 1.247,5.355 3.273,10.46 4.53,15.856 2.07,-1.096 0.755,0.099 0.755,-4.153 0,-2.307 6.082,-3.504 8.258,-4.2 8.823,-2.819 23.076,-4.499 23.076,-15.053 0,-8.29 -4.016,-17.366 -13.213,-17.366 -2.832,0 -5.853,0.921 -8.224,1.592l-15.216 4.443c-3.086,0.715 -4.984,-0.563 -5.251,-3.77z"/>
   <path class="fil0" d="M427.81 300.21c0.531,1.987 1.51,0.782 1.51,1.887 0,3.832 -6.04,4.607 -6.04,15.479 0,4.281 4.36,9.06 8.683,9.06 4.673,0 6.291,-0.627 10.288,-4.436 3.127,-2.98 8.838,-8.4 12.741,-8.4 5.379,0 6.588,9.264 0.23,13.066 -4.006,2.395 -4.768,1.28 -9.668,1.28l0 1.133 11.822 3.907c0.323,-0.051 0.127,0.516 0.474,-0.318 0.69,-1.662 -1.348,-0.435 -1.348,-2.457 0,-0.912 2.897,-3.845 3.626,-5.057 2.651,-4.407 2.963,-10.043 -0.704,-14.098 -4.706,-5.202 -11.051,-2.132 -15.43,1.363l-6.742 5.715c-2.266,1.767 -2.882,2.639 -6.422,2.639 -6.472,0 -6.933,-11.486 0.864,-15.369 3.766,-1.876 6.827,-0.025 8.575,-0.864 -0.382,-1.429 -2.491,-1.756 -5.801,-2.882 -2.086,-0.71 -5.947,-2.449 -6.658,-1.648z"/>
   <path class="fil0" d="M207.34 52.559c0.556,-2.386 1.092,-4.777 1.735,-7.326 0.557,-2.206 1.663,-5.525 1.663,-7.775 1.432,0.959 3.437,4.785 4.527,6.422l4.156 6.791c-2.504,0.056 -8.979,1.888 -12.081,1.888zm-9.437 16.611c2.106,-0.048 8.303,-1.606 11.703,-1.888l0 -1.133c-8.599,0 -3.17,-4.214 -3.02,-10.948 4.602,-1.072 9.752,-1.572 14.345,-2.642 0.686,2.571 4.53,5.875 4.53,9.06 0,1.784 -2.182,1.682 -3.397,2.265 0.901,1.703 -0.06,1.125 7.118,-0.054 1.472,-0.242 7.001,-0.985 7.982,-1.456 -2.036,-3.85 -1.354,3.382 -8.23,-6.87l-7.32 -11.556c-1.541,-2.402 -9.494,-15.192 -10.498,-15.928 -1.659,1.574 -2.544,8.292 -3.092,10.498 -0.987,3.968 -5.617,24.812 -6.903,27.074 -1.375,2.417 -3.017,1.158 -3.218,3.578z"/>
   <path class="fil0" d="M447.819 281.334c0,-3.88 1.51,-8.324 1.51,-12.081l13.591 8.306c-1.488,0.033 -6.168,1.418 -7.596,1.842l-7.505 1.933zm-12.458 -13.968c1.774,-0.717 0.169,-2.244 3.02,-4.153 1.909,0.445 3.169,1.103 4.685,2.111 1.182,0.785 3.049,2.11 4.375,2.419l-1.887 14.346c-6.504,0.541 -11.326,5.315 -11.326,-2.265l-1.132 0c-0.044,1.99 -0.777,5.417 -1.022,7.284 -0.325,2.484 -0.866,5.091 -0.866,7.439l1.132 0c0.874,-3.747 3.153,-4.373 7.626,-5.588l29.309 -7.688c1.431,-0.333 1.565,-0.029 2.328,-1.07 -0.44,-1.645 -7.323,-5.104 -8.755,-5.969 -5.954,-3.594 -17.628,-10.235 -22.695,-13.923 -1.799,-1.31 -2.463,-2.152 -2.527,-5.024l-1.133 0c-0.061,2.777 -2.029,10.211 -1.132,12.081z"/>
   <path class="fil0" d="M427.433 156.376c-1.147,-2.169 -5.245,-9.157 -5.663,-10.949 2.491,0 14.3,-0.944 15.479,-1.51 -0.404,1.513 -9.569,12.293 -9.816,12.459zm-17.366 -12.459l-2.642 0c-2.936,0 -2.398,-2.612 -4.153,-1.887 -0.567,0.54 2.111,4.671 2.521,5.407 0.613,1.094 0.903,1.442 1.505,2.651 1.805,3.624 1.486,2.19 1.637,2.135 1.844,-0.681 0,0.26 0,-3.775 0,-2.209 7.27,-2.399 10.192,-2.643 2.22,4.195 4.57,8.252 6.796,12.458 -1.105,1.65 -5.189,7.551 -7.173,7.551 -1.547,0 -2.821,-3.48 -3.487,-1.828 -0.166,0.412 5.797,12.245 7.263,12.776 1.427,-2.976 -2.992,-1.949 4.443,-11.035 1.849,-2.261 3.658,-4.456 5.376,-6.704l13.044 -16.469c1.59,-2.558 -0.362,-1.831 -2.465,-1.67l-21.591 2.218c-3.822,0.397 -7.361,0.815 -11.266,0.815z"/>
   <path class="fil0" d="M35.948 182.424c1.8,-0.149 1.178,-0.307 1.91,-1.487 2.413,-3.891 6.333,0.989 13.568,6.395l8.301 6.422c0.934,0.711 1.981,1.266 2.647,2.261 -4.706,0 -20.161,3.398 -26.804,3.398 -3.319,0 -1.937,-4.312 -1.887,-4.908l-1.51 0c-0.038,1.706 -2.273,9.035 -2.945,11.404 -1.185,4.182 -0.988,2.942 -0.075,3.319 0.552,0.244 -0.067,0.523 0.562,-0.228 1.697,-2.024 -0.274,-2.969 7.252,-4.038l33.713 -4.795c-0.164,-1.966 -1.35,-2.203 -3.403,-3.77l-25.396 -19.905c-2.63,-2.701 -1.003,-2.987 -2.158,-5.393 -1.517,0.405 -1.415,1.549 -2.344,5.206 -0.418,1.64 -1.389,4.234 -1.431,6.119z"/>
   <path class="fil0" d="M385.151 115.227c0,5.524 0.561,9.066 5.185,13.69 7.245,7.246 11.426,4.808 16.711,4.808l0 -1.511c-9.894,2.306 -17.366,-5.285 -17.366,-11.325 0,-6.145 1.383,-9.835 6.953,-14.188 6.392,-4.994 13.972,-9.233 21.081,-2.143 4.538,4.525 4.574,10.014 1.459,15.277 -0.778,1.315 -0.734,0.724 -0.424,2.187 1.658,-1.111 3.308,-3.119 4.814,-4.625 1.871,-1.872 4.105,-3.487 4.246,-5.191 -5.577,0.464 -2.698,1.173 -5.726,-5.221 -5.479,-11.571 -21.218,-13.46 -30.241,-4.697 -3.313,3.218 -6.692,7.76 -6.692,12.939z"/>
   <path class="fil0" d="M458.012 172.609c0,2.876 -3.747,3.302 -6.176,4.017 -4.624,1.361 -20.896,6.931 -24.403,6.931 -2.435,0 -2.935,-2.167 -3.397,-4.153 -1.337,0.707 -1.153,0.121 -0.857,1.533 0.088,0.42 0.545,1.8 0.72,2.377 0.502,1.659 0.867,2.961 1.411,4.631l4.906 16.235c1.451,4.571 -0.185,3.538 11.563,3.538l0 -1.132c-2.872,-0.669 -5.133,-0.776 -7.194,-2.245 -3.055,-2.179 -5.501,-12.69 -5.433,-13.577 0.175,-2.311 4.402,-2.754 6.258,-3.383 2.444,-0.828 4.663,-1.413 7.26,-2.178 12.694,-3.738 17.643,-7.707 19.495,0.241l1.132 0c-0.041,-1.832 -2.679,-9.538 -3.446,-12.032 -0.308,-1.003 -0.989,-3.056 -1.084,-4.201l-1.133 0c0.038,1.708 0.378,1.5 0.378,3.398z"/>
   <path class="fil0" d="M435.361 448.196c0,-6.372 0.884,-10.358 5.178,-14.83 7.038,-7.332 19.513,-7.466 26.635,-0.372 6.75,6.722 7.581,17.901 1.847,25.079l-1.986 2.167c-1.477,1.424 -3.348,2.845 -5.396,3.664 -14.841,5.935 -26.278,-6.392 -26.278,-15.708zm-2.265 -2.642c0,6.284 1.8,12.115 6.364,16.287 3.92,3.585 8.926,5.755 14.434,5.912 10.94,0.311 21.106,-9.494 21.106,-19.934l0 -2.265c0,-17.219 -22.548,-27.032 -35.588,-14.07 -3.101,3.082 -6.316,8.058 -6.316,14.07z"/>
   <path class="fil0" d="M159.018 432.34zm0 0zm0 0c-0.347,1.492 -5.89,10.731 -7.08,12.552 -1.724,2.639 -1.749,1.621 -4.245,1.039 0.4,1.496 0.917,1.18 3.844,2.952 1.07,0.647 3.33,2.07 4.461,2.334 -0.334,-1.253 -0.626,-0.814 -1.888,-2.265 0.65,-2.787 7.366,-13.707 9.816,-17.366 3.845,0 3.593,1.872 3.143,0.129 -0.221,-0.86 -1.823,-1.333 -3.074,-2.086 -0.85,-0.511 -1.583,-0.938 -2.334,-1.441 -0.347,0.302 -0.374,0.329 -0.838,0.672 -0.462,0.342 -0.673,0.466 -1.104,0.783 -0.743,0.547 -1.155,0.841 -1.985,1.414l-7.936 5.654c-1.44,1.041 -2.625,1.886 -3.993,2.802l1.888 -19.63c-1.62,-0.378 -6.963,-4.476 -5.609,-2.17 1.719,2.926 3.405,-0.711 -3.848,11.966 -4.699,8.214 -3.669,7.336 -7.532,6.437 0.378,1.043 0.849,1.116 2,1.776 0.772,0.443 4.147,2.649 4.723,2.479 1.115,-0.329 -1.056,-1.357 -1.437,-1.612 0,-3.261 3.794,-8.532 5.543,-11.445 0.695,-1.157 1.498,-3.007 2.384,-3.656 0,3.488 -0.63,8.32 -1.024,11.433 -0.252,1.989 -0.393,3.681 -0.501,5.566 -0.217,3.821 -1.723,4.889 9.018,-3.088l7.608 -5.229z"/>
   <path class="fil0" d="M127.684 63.884c2.254,0 3.995,3.853 5.36,5.966 1.546,2.397 2.857,4.519 4.383,6.943 1.292,2.053 8.378,12.842 8.378,14.272 0,3.208 -3.386,2.879 -2.821,4.381 0.365,0.974 2.884,-1.059 4.635,-2.19l8.101 -5.112c1.1,-0.846 0.609,-0.06 1.033,-1.231 -2.551,-1.18 -3.592,4.325 -7.782,-2.034l-5.127 -8.085c-1.62,-2.589 -9.364,-13.756 -9.364,-16.685 0,-2.167 2.455,-1.659 3.02,-3.775 -1.172,-0.542 -2.201,0.505 -4.456,1.961l-9.028 5.792c-1.192,1.356 -0.19,1.279 0.856,0.856 1.156,-0.466 1.327,-1.059 2.812,-1.059z"/>
   <path class="fil0" d="M26.133 234.522l1.132 0c0,-1.846 0.443,-3.653 1.667,-4.383 2.162,-1.291 22.991,1.887 27.025,2.117 6.588,0.374 6.04,1.749 6.04,6.041l1.132 0c0.079,-3.532 1.51,-11.758 1.51,-16.233l-1.132 0c0,7.244 -4.872,4.616 -12.459,4.153l-8.899 -0.916c-12.129,-1.695 -13.374,0.445 -13.374,-6.635l-1.132 0c-0.074,3.311 -1.51,11.954 -1.51,15.856z"/>
   <path class="fil0" d="M452.349 445.176l-2.265 0 0 -9.06c0,-1.468 0.969,-1.133 3.398,-1.133 5.85,0 6.447,10.193 -1.133,10.193zm-9.438 -10.948c2.373,0 3.398,0.3 3.398,2.643l0 18.121c0,2.107 -1.461,2.481 -3.398,2.642l10.571 0c-1.005,-0.083 -2.302,-0.409 -3.02,-0.754 -0.739,-3.169 -0.378,-6.897 -0.378,-10.194l2.643 0c0.354,1.325 1.16,2.064 1.887,3.021l6.04 8.683 6.796 0 0 -1.133c-4.243,0 -6.09,-3.973 -8.843,-7.768 -0.902,-1.243 -1.731,-1.952 -2.105,-3.558 7.656,-0.637 7.75,-11.802 -0.759,-12.454 -3.791,-0.29 -8.896,-0.004 -12.832,-0.004l0 0.755z"/>
   <path class="fil0" d="M358.725 423.658c4.96,-7.407 14.695,2.371 4.908,7.55 -1.664,-2.485 -3.244,-5.065 -4.908,-7.55zm-6.418 2.642c2.16,-0.576 2.375,-2.498 5.738,2.567 1.803,2.716 7.853,11.047 7.853,13.289 0,1.077 -0.28,0.609 -0.711,1.178 -1.043,1.376 -0.542,-0.887 -0.8,1.465 1.668,-0.883 7.776,-4.057 8.306,-6.04 -4.171,1.113 -2.119,2.819 -8.306,-6.419 2.705,-1.81 3.723,-0.657 10.139,1.943 2.477,1.004 3.448,1.796 5.044,0.817 1.156,-0.709 3.443,-2.198 4.071,-3.137 -3.656,0.082 -1.487,1.614 -7.508,-0.42 -2.378,-0.803 -4.633,-1.998 -7.215,-2.6 0.821,-1.227 2.265,-2.947 2.265,-4.907 0,-3.361 -2.302,-5.663 -5.663,-5.663 -2.484,0 -5.596,2.107 -7.329,3.241 -1.205,0.79 -2.002,1.351 -3.167,2.119 -1.159,0.763 -2.325,1.102 -2.717,2.567z"/>
   <path class="fil0" d="M187.332 443.666c0,1.135 -2.332,7.655 -2.874,9.207 -3.039,8.692 -2.283,8.691 -6.186,7.781 0.405,1.518 -0.031,0.819 3.632,2.031 1.517,0.501 3.248,1.422 4.296,0.99 -2.424,-3.308 -4.165,1.735 -0.426,-9.486 0.613,-1.84 2.164,-5.715 2.313,-7.503l0.755 0c0.129,1.552 5.138,13.956 6.084,16.568 1.355,3.738 1.101,4.551 2.599,4.951 0.433,-1.856 1.264,-3.983 1.84,-5.711 0.688,-2.065 1.296,-3.879 1.984,-5.944 3.607,-10.826 2.183,-8.824 6.369,-8.731l0 -0.755c-2.311,-0.538 -5.328,-2.08 -7.551,-2.265 1.234,3.405 4.074,-2.214 0.236,9.295 -0.608,1.823 -1.979,5.215 -2.123,6.938l-5.395 -12.725c-2.567,-6.557 -1.391,-6.625 -5.313,-7.901 -1.422,-0.462 -1.998,-0.856 -3.638,-0.893 0.941,1.284 3.398,1.789 3.398,4.153z"/>
   <path class="fil0" d="M402.14 390.814l0 -2.265c0,-2.436 3.229,-5.286 5.662,-5.286 4.155,0 6.084,2.096 8.474,3.985 10.77,8.51 0.651,20.768 -9.52,10.652 -1.456,-1.449 -4.616,-4.53 -4.616,-7.086zm-2.266 0c0,4.468 0.203,6.062 3.678,9.536 4.542,4.542 11.139,5.192 15.299,1.513 3.783,-3.346 4.052,-5.132 4.052,-9.539 0,-3.065 -1.382,-5.455 -3.34,-7.608 -6.699,-7.362 -19.689,-3.161 -19.689,6.098z"/>
   <path class="fil0" d="M389.681 424.036c4.609,0 5.695,-0.543 9.391,-3.445 1.492,-1.171 1.428,-1.137 2.588,-2.698 3.291,-4.428 2.182,-3.664 -1.574,-8.415 -3.376,-4.273 -1.715,-2.65 -0.967,-5.451 -0.97,0.259 -6.843,4.807 -7.173,6.04 2.288,-0.19 2.123,-2.638 5.824,2.104 0.414,0.53 2.86,3.284 2.86,3.559 0,2.658 -6.743,10.379 -15.58,1.611 -7.284,-7.227 -2.048,-15.579 3.499,-15.579 3.107,0 3.534,1.014 5.663,1.51 -0.343,-1.282 -4.004,-4.943 -5.286,-5.285 0.857,3.677 -1.578,0.924 -5.953,4.994 -9.053,8.424 -1.378,21.055 6.708,21.055z"/>
   <path class="fil0" d="M316.066 444.044c1.826,-0.426 3.985,-2.584 6.912,0.638 1.783,1.962 1.989,5.52 -0.25,7.157 -1.346,0.985 -2.338,0.639 -3.642,1.265 -0.387,-1.661 -1.005,-2.823 -1.557,-4.483 -0.529,-1.592 -1.221,-2.69 -1.463,-4.577zm-6.796 1.51c4.191,-0.977 3.146,-0.66 6.473,8.251 6.012,16.104 2.209,8.277 1.077,12.512 1.7,-0.396 2.968,-1.041 4.769,-1.649 1.525,-0.514 3.922,-1.106 4.67,-2.126 -0.693,-0.286 -1.728,0 -3.399,0 -0.774,-1.465 -2.863,-6.428 -3.02,-8.305 1.392,-0.667 8.306,-1.387 8.306,-6.796 0,-3.999 -2.595,-6.418 -6.796,-6.418 -2.673,0 -4.425,0.985 -6.558,1.747 -3.53,1.26 -5.13,1.316 -5.522,2.784z"/>
   <path class="fil0" d="M301.343 447.819c-4.042,0 -6.846,-0.584 -9.179,1.769 -2.814,2.837 -2.645,6.561 -0.171,8.713 3.587,3.12 13.124,2.565 13.124,7.261 0,4.891 -9.677,6.319 -11.325,-0.755l-0.755 0c0,1.434 1.046,7.035 2.265,7.928 0.135,-1.623 -0.053,-0.68 0.755,-1.888 3.618,0.43 8.072,0.995 10.859,-3.109 1.63,-2.4 1.386,-5.598 -0.562,-7.565 -1.505,-1.52 -4.958,-2.428 -7.436,-3.134 -2.528,-0.72 -6.258,-1.399 -6.258,-4.312 0,-4.194 8.954,-5.429 10.57,1.51l0.755 0c0,-3.044 -1.447,-5.086 -1.51,-7.928l-1.132 0 0 1.51z"/>
   <path class="fil0" d="M120.512 402.517c-1.535,6.589 -16.146,14.958 -6.479,22.713 6.905,5.54 10.486,2.783 15,-3.244 1.619,-2.162 4.896,-7.766 6.957,-7.766 0.436,0 5.075,1.788 0.658,-1.407 -1.106,-0.8 -3.718,-2.831 -4.811,-3.123 0.953,3.566 4.471,-0.295 -3.72,10.625 -3.396,4.526 -3.712,5.985 -8.36,5.985 -1.744,0 -6.04,-2.172 -6.04,-6.04 0,-2.317 5.222,-8.989 7.062,-11.435 3.354,-4.46 1.938,-3.515 6.151,-2.533 -0.417,-1.561 -3.763,-3.384 -5.07,-4.369 -0.811,-0.612 -2.129,-1.939 -2.792,-1.766 -0.967,0.25 0.894,1.54 1.444,2.36z"/>
   <path class="fil0" d="M220.554 455.369l0.755 0c0,1.625 1.393,8.03 1.887,9.061 -1.645,-0.383 -6.017,-0.956 -7.173,-1.51 0.604,-2.261 3.927,-5.289 4.531,-7.551zm-13.591 14.346c0.475,1.779 2.822,1.251 7.173,2.265l0 -1.133c-4.97,-0.413 -0.3,-3.881 0.377,-6.417 2.203,0 7.007,1.032 9.061,1.51 0,2.412 0.755,2.872 0.755,5.285 0,2.537 -1.937,-0.377 -2.643,2.265 2.203,0 7.007,1.032 9.061,1.51l0 -1.133c-2.421,-0.201 -2.758,-2.414 -3.242,-4.686l-4.309 -19.475c-1.54,0.412 -6.689,9.091 -7.625,10.496 -1.285,1.927 -2.336,3.455 -3.577,5.483 -0.556,0.909 -1.24,1.837 -1.906,2.624 -0.996,1.175 -1.091,1.406 -3.125,1.406z"/>
   <path class="fil0" d="M339.094 438.003c1.316,0.881 6.358,5.201 7.173,6.418l-6.418 3.02 -0.755 -9.438zm-0.755 17.744c0,1.452 -1.103,1.497 -1.51,3.02 1.545,-0.129 2.608,-0.929 3.776,-1.509l2.452 -1.287c0.819,-0.834 0.538,-0.649 -0.442,-0.642 -2.51,0.019 -2.12,0.06 -2.481,-1.375 -0.323,-1.286 -0.285,-3.197 -0.285,-5.002 1.924,-0.449 6.345,-3.398 7.551,-3.398 0.35,0 3.962,2.092 4.53,4.53 -0.839,1.253 -1.018,0.528 -1.51,1.888 1.546,-0.129 4.659,-1.956 6.563,-2.875 1.42,-0.686 1.379,-0.294 1.742,-1.656 -4.494,1.048 -3.507,-0.486 -10.514,-6.096l-9.78 -8.437c-2.341,-1.527 -0.908,2.193 -0.835,4.706 0.187,6.373 0.743,11.991 0.743,18.133z"/>
   <path class="fil0" d="M101.636 386.661c0,1.941 -12.408,15.101 -12.836,15.101 -1.784,0 -1.509,-0.729 -3.02,-1.132 0.484,1.812 8.036,7.522 9.717,9.159l3.496 2.921c1.372,-0.726 4.871,-2.695 5.663,-3.775 -1.937,0.043 -2.133,0.75 -3.926,1.006 -2.797,0.399 -7.35,-3.68 -8.532,-5.914 2.322,-3.468 7.815,-9.054 10.88,-12.908 2.206,-2.773 2.92,-0.494 5.353,0.072 -0.292,-1.093 -2.686,-2.943 -3.775,-3.775 -1.477,-1.128 -2.525,-2.862 -4.53,-3.397 0.487,1.827 1.51,1.262 1.51,2.642z"/>
   <path class="fil0" d="M173.741 436.116c0,2.486 -4.737,11.353 -5.88,14.128 -1.534,3.721 -1.818,4.957 -5.067,3.238 0.153,1.4 0.072,1.134 1.644,1.753 1.178,0.464 1.308,0.471 2.384,1.013l3.66 1.654c0.65,0.228 -0.131,0.025 0.443,0.135 1.694,0.322 0.531,-0.381 0.467,-0.469 -1.954,-2.69 -3.528,0.614 2.474,-12.267 4.458,-9.567 2.711,-7.394 7.048,-7.298l0 -0.754c-2.313,-0.193 -6.584,-3.199 -9.06,-3.776 0.533,1.996 1.887,0.818 1.887,2.643z"/>
  </g>
 </g>
</svg>
