<?xml version="1.0" encoding="UTF-8"?>
<!DOCTYPE svg PUBLIC "-//W3C//DTD SVG 1.1//EN" "http://www.w3.org/Graphics/SVG/1.1/DTD/svg11.dtd">
<!-- Creator: CorelDRAW 2021 (64-Bit) -->
<svg xmlns="http://www.w3.org/2000/svg" xml:space="preserve" width="500px" height="500px" version="1.1" style="shape-rendering:geometricPrecision; text-rendering:geometricPrecision; image-rendering:optimizeQuality; fill-rule:evenodd; clip-rule:evenodd"
viewBox="0 0 500 500"
 xmlns:xlink="http://www.w3.org/1999/xlink"
 xmlns:xodm="http://www.corel.com/coreldraw/odm/2003">
 <defs>
  <style type="text/css">
   <![CDATA[
    .fil0 {fill:#ADADAD}
   ]]>
  </style>
 </defs>
 <g id="Capa_x0020_1">
  <metadata id="CorelCorpID_0Corel-Layer"/>
  <path class="fil0" d="M308.306 237.626c40.998,-11.174 57.279,51.882 16.718,62.308 -42.26,10.863 -57.492,-51.197 -16.718,-62.308zm-72.698 25.017l29.14 0.714 -0.522 11.634 -28.254 0.234 -0.364 -12.582zm-60.288 -24.79c18.906,-5.734 36.122,8.323 39.604,22.887 8.059,33.697 -30.178,49.879 -49.86,34.764 -19.677,-15.108 -20.334,-48.375 10.256,-57.651zm-63.794 -10.842c0.043,-13.07 -4.021,-28.851 17.013,-38.849 16.25,15.745 15.579,10.368 15.662,38.817l-32.675 0.032zm253.267 -26.586c24.407,-10.62 34.439,25.145 13.651,32.724 -24.448,8.911 -31.52,-24.949 -13.651,-32.724zm34.458 -33.61c21.388,-9.104 33.857,24.73 13.287,32.778 -22.407,8.767 -36.878,-22.734 -13.287,-32.778zm-66.708 -0.503c24.683,-8.332 33.209,28.296 11.068,33.945 -10.761,2.747 -19.904,-3.931 -22.293,-11.979 -2.978,-10.026 3.361,-19.311 11.225,-21.966zm-199.716 16.304c14.032,-16.251 10.176,-15.456 38.707,-15.869l0.027 32.774c-16.586,-0.35 -25.042,4.078 -38.734,-16.905zm-49.195 -15.544c8.267,-0.44 19.848,-1.77 25.863,2.019 4.334,2.729 11.227,10.655 13.042,15.472 -16.18,14.042 -7.485,16.072 -38.768,14.645l-0.137 -32.136zm45.165 10.97c-21.351,-11.16 -17.095,-24.623 -17.33,-38.904l32.734 0.003c-0.293,30.59 0.459,22.824 -15.404,38.901zm238.384 -45.168c22.314,-7.088 31.161,28.021 10.458,33.922 -24.116,6.873 -33.566,-26.581 -10.458,-33.922zm-251.502 -14.972c-20.88,4.195 -44.145,28.704 -53.017,41.81 -13.173,19.46 -20.461,38.205 -26.614,65.429 -11.622,51.414 -20.806,116.305 8.908,154.909 21.363,27.753 61.289,30.856 94.394,-2.826 3.905,-3.973 7.071,-6.215 11.632,-10.88 8.295,-8.484 20.52,-29.58 31.168,-38.314 8.687,-7.125 18.991,-11.431 34.434,-11.924 112.205,-3.572 90.003,1.558 134.063,51.214 10.318,11.628 32.5,33.828 57.567,34.9 26.283,1.126 48.904,-20.017 56.938,-37.29 10.716,-23.04 11.278,-54.462 8.275,-82.456 -2.888,-26.926 -7.456,-54.565 -15.128,-78.917 -13.638,-43.295 -35.732,-71.317 -75.222,-86.559 -14.941,-5.768 -1.961,-1.73 -9.147,-13.23 -5.67,-9.074 -30.761,-5.203 -42.717,-5.243 -20.702,-0.069 -27.02,-4.062 -30.998,15.048 -18.675,1.801 -36.533,5.105 -55.462,4.38 -18.71,-0.716 -36.463,-4.216 -54.913,-5.567 -1.793,-19.338 -22.275,-13.839 -40.823,-13.856 -23.091,-0.021 -36.083,-5.629 -33.338,19.372z"/>
 </g>
</svg>
